<svg width="28" height="28" viewBox="0 0 28 28" fill="none" xmlns="http://www.w3.org/2000/svg">
<circle cx="14" cy="14" r="13.5" fill="#EAFBF8" stroke="black"/>
<path d="M19.3274 9.46618C19.4042 9.38784 19.4958 9.3256 19.597 9.28312C19.6981 9.24063 19.8067 9.21875 19.9164 9.21875C20.0261 9.21875 20.1346 9.24063 20.2358 9.28312C20.3369 9.3256 20.4285 9.38784 20.5053 9.46618C20.8271 9.7913 20.8316 10.3167 20.5166 10.6474L13.8644 18.5112C13.7889 18.5941 13.6973 18.6608 13.5951 18.7071C13.4929 18.7534 13.3824 18.7783 13.2702 18.7804C13.1581 18.7825 13.0467 18.7617 12.9428 18.7193C12.839 18.6769 12.7449 18.6137 12.6663 18.5337L8.61855 14.4319C8.46245 14.2727 8.375 14.0586 8.375 13.8357C8.375 13.6127 8.46245 13.3986 8.61855 13.2394C8.69533 13.1611 8.78696 13.0989 8.88809 13.0564C8.98922 13.0139 9.0978 12.992 9.20749 12.992C9.31718 12.992 9.42577 13.0139 9.52689 13.0564C9.62802 13.0989 9.71965 13.1611 9.79643 13.2394L13.2299 16.7191L19.3049 9.49093C19.3119 9.48223 19.3194 9.47397 19.3274 9.46618Z" fill="black"/>
</svg>
