<svg width="57" height="40" viewBox="0 0 57 40" fill="none" xmlns="http://www.w3.org/2000/svg">
<path d="M56.0223 20.0001C56.0223 25.354 52.9939 30.2399 48.0197 33.8035C43.0462 37.3667 36.1541 39.5835 28.5222 39.5835C20.8903 39.5835 13.9983 37.3667 9.02476 33.8035C4.05052 30.2399 1.02214 25.354 1.02214 20.0001C1.02214 14.6461 4.05052 9.76024 9.02476 6.1966C13.9983 2.63349 20.8903 0.416668 28.5222 0.416668C36.1541 0.416668 43.0462 2.63349 48.0197 6.1966C52.9939 9.76024 56.0223 14.6461 56.0223 20.0001Z" fill="white" stroke="black" stroke-width="0.833336"/>
<line x1="21.8565" y1="13" x2="35.8462" y2="26.9897" stroke="black" stroke-width="1.21129" stroke-linecap="round"/>
<line x1="22" y1="26.9902" x2="35.9897" y2="13.0004" stroke="black" stroke-width="1.21129" stroke-linecap="round"/>
</svg>
