<svg width="208" height="33" viewBox="0 0 208 33" fill="none" xmlns="http://www.w3.org/2000/svg">
<path d="M115.526 24.4434C114.402 24.4434 113.388 24.2463 112.481 23.8522C111.594 23.4581 110.826 22.9161 110.175 22.2264C109.545 21.5366 109.052 20.7188 108.697 19.7729C108.362 18.827 108.195 17.8022 108.195 16.6986C108.195 15.595 108.362 14.5604 108.697 13.5948C109.052 12.6292 109.545 11.7916 110.175 11.0822C110.826 10.353 111.594 9.78151 112.481 9.36767C113.388 8.95383 114.402 8.7469 115.526 8.7469C116.531 8.7469 117.418 8.91441 118.186 9.24943C118.955 9.58444 119.625 10.0574 120.196 10.6683C120.492 11.0033 120.709 11.427 120.847 11.9394C121.004 12.4321 121.162 12.8952 121.32 13.3287L121.733 13.1809C121.595 12.7671 121.448 12.3138 121.29 11.8212C121.132 11.3088 121.053 10.826 121.053 10.3727V2.56881H123.123V24H121.053V22.9358C121.053 22.4826 121.132 22.0096 121.29 21.5169C121.448 21.0243 121.595 20.5612 121.733 20.1276L121.32 20.0094C121.182 20.4232 121.034 20.8863 120.876 21.3987C120.718 21.9111 120.482 22.3249 120.167 22.6402C119.615 23.2117 118.955 23.6551 118.186 23.9704C117.418 24.2857 116.531 24.4434 115.526 24.4434ZM110.264 16.6986C110.264 17.5066 110.363 18.2653 110.56 18.9748C110.776 19.6645 111.092 20.2754 111.506 20.8075C111.939 21.3199 112.491 21.7239 113.161 22.0195C113.831 22.3151 114.619 22.4629 115.526 22.4629C116.432 22.4629 117.23 22.3151 117.92 22.0195C118.61 21.7239 119.181 21.3199 119.635 20.8075C120.108 20.2754 120.462 19.6645 120.699 18.9748C120.935 18.2653 121.053 17.5066 121.053 16.6986C121.053 15.8906 120.935 15.1221 120.699 14.3929C120.462 13.6638 120.108 13.0331 119.635 12.5011C119.181 11.9493 118.61 11.5157 117.92 11.2004C117.23 10.8851 116.432 10.7274 115.526 10.7274C114.619 10.7274 113.831 10.8851 113.161 11.2004C112.491 11.5157 111.939 11.9493 111.506 12.5011C111.092 13.0331 110.776 13.6638 110.56 14.3929C110.363 15.1221 110.264 15.8906 110.264 16.6986ZM124.463 16.5213C124.463 15.4177 124.641 14.3929 124.995 13.447C125.37 12.5011 125.882 11.6832 126.533 10.9935C127.183 10.3037 127.961 9.76181 128.868 9.36767C129.774 8.97353 130.769 8.77646 131.853 8.77646C132.977 8.77646 133.982 8.98339 134.869 9.39723C135.755 9.79137 136.514 10.3333 137.145 11.023C137.775 11.7128 138.248 12.5109 138.564 13.4174C138.899 14.3239 139.066 15.2699 139.066 16.2552C139.066 16.4129 139.066 16.6296 139.066 16.9055C139.066 17.1814 139.056 17.3785 139.037 17.4967H126.592C126.592 18.0091 126.7 18.5609 126.917 19.1521C127.153 19.7433 127.508 20.2853 127.981 20.7779C128.454 21.2706 129.045 21.6844 129.755 22.0195C130.464 22.3348 131.302 22.4924 132.267 22.4924C132.898 22.4924 133.459 22.4136 133.952 22.2559C134.445 22.0786 134.869 21.8618 135.223 21.6056C135.598 21.3297 135.903 21.0341 136.14 20.7188C136.376 20.4035 136.534 20.0882 136.613 19.7729H138.741C138.642 20.1473 138.445 20.6104 138.15 21.1622C137.854 21.6943 137.45 22.2067 136.938 22.6993C136.425 23.192 135.795 23.6157 135.046 23.9704C134.297 24.3055 133.42 24.473 132.415 24.473C131.114 24.473 129.971 24.266 128.986 23.8522C128.001 23.4384 127.173 22.8767 126.503 22.1673C125.833 21.4381 125.321 20.5907 124.966 19.6251C124.631 18.6594 124.463 17.6248 124.463 16.5213ZM136.819 15.5162C136.819 14.8856 136.701 14.2845 136.465 13.713C136.248 13.1218 135.923 12.6094 135.489 12.1759C135.075 11.7423 134.563 11.3975 133.952 11.1413C133.341 10.8851 132.651 10.757 131.883 10.757C131.095 10.757 130.375 10.8949 129.725 11.1708C129.075 11.4467 128.513 11.8113 128.04 12.2646C127.587 12.7178 127.232 13.2302 126.976 13.8017C126.72 14.3732 126.592 14.9447 126.592 15.5162H136.819ZM141.799 19.4182C141.799 19.7335 141.868 20.0685 142.006 20.4232C142.164 20.7779 142.42 21.1129 142.774 21.4283C143.129 21.7239 143.602 21.98 144.193 22.1968C144.785 22.3939 145.524 22.4924 146.41 22.4924C146.883 22.4924 147.386 22.4629 147.918 22.4037C148.47 22.3446 148.962 22.2264 149.396 22.049C149.849 21.852 150.224 21.5761 150.519 21.2213C150.815 20.8666 150.963 20.4035 150.963 19.832C150.963 19.2802 150.805 18.8368 150.49 18.5018C150.174 18.1471 149.751 17.8613 149.219 17.6445C148.706 17.4278 148.115 17.2603 147.445 17.142C146.795 17.0041 146.125 16.876 145.435 16.7577C144.745 16.6198 144.065 16.472 143.395 16.3143C142.745 16.137 142.154 15.9005 141.622 15.6049C141.109 15.3093 140.695 14.9349 140.38 14.4816C140.065 14.0086 139.907 13.4174 139.907 12.708C139.907 12.2153 140.055 11.7325 140.351 11.2595C140.666 10.7866 141.109 10.3727 141.681 10.018C142.252 9.64357 142.952 9.34796 143.78 9.13119C144.607 8.8947 145.543 8.77646 146.588 8.77646C147.278 8.77646 147.987 8.875 148.716 9.07207C149.465 9.24943 150.145 9.53518 150.756 9.92931C151.367 10.3037 151.869 10.7866 152.263 11.3778C152.657 11.9493 152.855 12.6292 152.855 13.4174H150.815C150.815 12.9642 150.687 12.57 150.431 12.235C150.174 11.9 149.849 11.6241 149.455 11.4073C149.061 11.1906 148.618 11.0329 148.125 10.9344C147.632 10.8161 147.149 10.757 146.676 10.757C145.198 10.757 144.055 10.9639 143.247 11.3778C142.459 11.7916 142.065 12.3237 142.065 12.974C142.065 13.447 142.331 13.8017 142.863 14.0382C143.415 14.2747 144.105 14.4816 144.932 14.659C145.76 14.8363 146.647 15.0137 147.593 15.191C148.539 15.3684 149.426 15.6344 150.253 15.9892C151.081 16.3439 151.761 16.8267 152.293 17.4376C152.845 18.0288 153.121 18.827 153.121 19.832C153.121 20.6203 152.933 21.31 152.559 21.9012C152.185 22.4924 151.682 22.9752 151.051 23.3497C150.44 23.7241 149.741 24 148.953 24.1774C148.164 24.3744 147.346 24.473 146.499 24.473C145.376 24.473 144.39 24.335 143.543 24.0591C142.696 23.8029 141.986 23.4482 141.415 22.995C140.863 22.5417 140.439 22.0096 140.144 21.3987C139.868 20.7878 139.73 20.1276 139.73 19.4182H141.799ZM154.921 9.21987H156.991V24H154.921V9.21987ZM154.744 3.30781H157.109V5.67264H154.744V3.30781ZM165.998 24.473C164.934 24.473 163.959 24.266 163.072 23.8522C162.185 23.4384 161.417 22.8767 160.766 22.1673C160.116 21.4381 159.613 20.5907 159.259 19.6251C158.904 18.6594 158.727 17.6248 158.727 16.5213C158.727 15.4177 158.904 14.3929 159.259 13.447C159.613 12.5011 160.116 11.6832 160.766 10.9935C161.417 10.3037 162.185 9.76181 163.072 9.36767C163.959 8.97353 164.934 8.77646 165.998 8.77646C166.964 8.77646 167.821 8.94397 168.57 9.27899C169.339 9.5943 169.999 10.0377 170.551 10.6092C170.866 10.9442 171.103 11.3679 171.26 11.8803C171.418 12.3927 171.576 12.8558 171.733 13.2696L172.147 13.1218C171.989 12.708 171.822 12.2547 171.644 11.7621C171.487 11.2694 171.388 10.7964 171.349 10.3432L171.29 9.21987H173.359V24.4138C173.359 25.4189 173.241 26.3451 173.004 27.1925C172.768 28.0596 172.374 28.7986 171.822 29.4095C171.29 30.0401 170.58 30.523 169.694 30.858C168.826 31.2127 167.743 31.3901 166.442 31.3901C164.353 31.3901 162.698 30.9072 161.476 29.9416C160.254 28.976 159.623 27.6064 159.584 25.8327H161.683C161.683 26.5619 161.85 27.1531 162.185 27.6064C162.52 28.0793 162.924 28.4439 163.397 28.7001C163.87 28.976 164.353 29.1632 164.846 29.2617C165.358 29.3603 165.782 29.4095 166.117 29.4095C167.082 29.4095 167.89 29.2814 168.541 29.0252C169.211 28.7888 169.743 28.4439 170.137 27.9906C170.551 27.5571 170.846 27.0349 171.024 26.4239C171.201 25.813 171.29 25.143 171.29 24.4138C171.29 23.9015 171.3 23.4778 171.319 23.1428C171.339 22.8077 171.378 22.4924 171.438 22.1968C171.497 21.9012 171.576 21.5958 171.674 21.2805C171.792 20.9454 171.94 20.5217 172.117 20.0094L171.704 19.8616C171.546 20.2754 171.388 20.7385 171.231 21.2509C171.093 21.7436 170.886 22.1574 170.61 22.4924C170.058 23.123 169.398 23.6157 168.629 23.9704C167.861 24.3055 166.984 24.473 165.998 24.473ZM166.058 10.757C165.19 10.757 164.432 10.9048 163.781 11.2004C163.131 11.496 162.579 11.9 162.126 12.4124C161.693 12.9248 161.358 13.5357 161.121 14.2451C160.904 14.9546 160.796 15.7133 160.796 16.5213C160.796 17.3292 160.904 18.0978 161.121 18.827C161.358 19.5561 161.693 20.1966 162.126 20.7484C162.579 21.2805 163.131 21.7042 163.781 22.0195C164.432 22.3348 165.19 22.4924 166.058 22.4924C166.866 22.4924 167.585 22.3545 168.215 22.0786C168.846 21.783 169.378 21.3888 169.812 20.8962C170.265 20.3838 170.61 19.8024 170.846 19.1521C171.103 18.4821 171.25 17.7628 171.29 16.9942V16.0483C171.25 15.2797 171.103 14.5801 170.846 13.9495C170.61 13.2992 170.265 12.7375 169.812 12.2646C169.378 11.7916 168.846 11.427 168.215 11.1708C167.585 10.8949 166.866 10.757 166.058 10.757ZM176.318 9.21987H178.388V9.60415C178.388 10.0574 178.299 10.5304 178.122 11.023C177.944 11.5157 177.777 11.9591 177.619 12.3533L178.033 12.5306C178.191 12.1365 178.378 11.7029 178.595 11.23C178.831 10.7373 179.117 10.3432 179.452 10.0476C179.807 9.75195 180.161 9.52532 180.516 9.36767C180.871 9.19031 181.235 9.06221 181.61 8.98339C182.004 8.88485 182.418 8.82573 182.851 8.80603C183.305 8.78632 183.807 8.77646 184.359 8.77646C185.127 8.77646 185.837 8.88485 186.487 9.10163C187.157 9.3184 187.739 9.64357 188.231 10.0771C188.724 10.491 189.108 11.0132 189.384 11.6438C189.66 12.2744 189.798 13.0134 189.798 13.8608V24H187.729V15.3388C187.729 13.6835 187.404 12.4814 186.753 11.7325C186.123 10.9836 185.127 10.6092 183.768 10.6092C183.039 10.6092 182.349 10.7077 181.698 10.9048C181.048 11.0822 180.477 11.3679 179.984 11.7621C179.491 12.1365 179.097 12.6292 178.802 13.2401C178.526 13.8313 178.388 14.5309 178.388 15.3388V24H176.318V9.21987ZM193.506 14.186H197.438V10.0771H199.507V14.186H203.616V16.1074H199.507V20.2754H197.438V16.1074H193.506V14.186Z" fill="#603DEA"/>
<path d="M1.7145 9.21987H5.32085V9.45635C5.32085 10.0476 5.20261 10.6782 4.96612 11.3482C4.72964 11.9985 4.50301 12.6094 4.28624 13.1809L4.907 13.447C5.02524 13.1711 5.13363 12.8755 5.23217 12.5602C5.35041 12.2252 5.4785 11.9 5.61645 11.5847C5.7544 11.2694 5.91205 10.9738 6.08941 10.6979C6.26678 10.4023 6.4737 10.1658 6.71018 9.98843C7.3408 9.49576 8.00098 9.1706 8.69072 9.01295C9.38046 8.85529 10.2081 8.77646 11.1738 8.77646C11.9226 8.77646 12.6222 8.88485 13.2726 9.10163C13.9229 9.3184 14.4845 9.64357 14.9575 10.0771C15.4502 10.491 15.8344 11.0132 16.1103 11.6438C16.3862 12.2744 16.5242 13.0134 16.5242 13.8608V24H12.8883V16.4621C12.8883 15.0432 12.6222 14.0086 12.0901 13.3583C11.5778 12.6883 10.7796 12.3533 9.69577 12.3533C9.10456 12.3533 8.54292 12.4321 8.01083 12.5897C7.47875 12.7474 7.01564 13.0036 6.6215 13.3583C6.22736 13.6933 5.91205 14.117 5.67557 14.6294C5.43909 15.1418 5.32085 15.7527 5.32085 16.4621V24H1.7145V9.21987ZM18.2167 9.21987H21.7935V24H18.2167V9.21987ZM18.0098 3.30781H21.9413V7.00285H18.0098V3.30781ZM33.3269 9.21987V12.3828H29.4841V19.0339C29.4841 19.6645 29.6319 20.0882 29.9275 20.305C30.2428 20.5217 30.7453 20.6301 31.435 20.6301H33.1791V24H29.6023C28.9126 24 28.3312 23.8522 27.8582 23.5566C27.3853 23.261 27.001 22.8767 26.7054 22.4037C26.4098 21.9308 26.193 21.3987 26.0551 20.8075C25.9368 20.2163 25.8777 19.6251 25.8777 19.0339V12.3828H22.9217V9.21987H25.8777V3.63298H29.4841V9.21987H33.3269ZM34.3543 24V9.21987H37.9607V9.66327C37.9607 10.2348 37.8326 10.8358 37.5764 11.4664C37.3399 12.0971 37.1133 12.6686 36.8965 13.1809L37.5173 13.447C37.6355 13.1908 37.7538 12.9149 37.872 12.6193C37.9902 12.304 38.1183 12.0084 38.2563 11.7325C38.3942 11.4369 38.5519 11.161 38.7293 10.9048C38.9066 10.6486 39.1135 10.4318 39.35 10.2545C39.7442 9.95887 40.1481 9.71254 40.562 9.51547C40.9758 9.3184 41.4192 9.1706 41.8922 9.07207C42.3849 8.95383 42.917 8.875 43.4885 8.83558C44.06 8.79617 44.7103 8.77646 45.4394 8.77646V12.1463C44.5329 12.1463 43.6264 12.235 42.7199 12.4124C41.8331 12.5897 41.035 12.8952 40.3255 13.3287C39.6161 13.7426 39.0446 14.2944 38.611 14.9841C38.1775 15.6739 37.9607 16.5311 37.9607 17.5559V24H34.3543ZM53.9516 24.473C52.6904 24.473 51.5375 24.2857 50.4931 23.9113C49.4486 23.5369 48.5618 23.0048 47.8327 22.3151C47.1035 21.6253 46.532 20.7976 46.1182 19.832C45.724 18.8467 45.527 17.7628 45.527 16.5804C45.527 15.398 45.724 14.3239 46.1182 13.3583C46.532 12.3927 47.1035 11.5748 47.8327 10.9048C48.5618 10.2151 49.4486 9.69283 50.4931 9.33811C51.5375 8.96368 52.6904 8.77646 53.9516 8.77646C55.2326 8.77646 56.3854 8.97353 57.4102 9.36767C58.4546 9.7421 59.3415 10.2742 60.0706 10.9639C60.8195 11.6537 61.391 12.4814 61.7851 13.447C62.199 14.3929 62.4059 15.4374 62.4059 16.5804C62.4059 17.7234 62.199 18.7777 61.7851 19.7433C61.391 20.709 60.8195 21.5465 60.0706 22.2559C59.3415 22.9457 58.4546 23.4876 57.4102 23.8818C56.3854 24.2759 55.2326 24.473 53.9516 24.473ZM49.3698 16.5804C49.3698 17.1913 49.4585 17.7726 49.6358 18.3244C49.8132 18.8565 50.0792 19.3295 50.434 19.7433C50.8084 20.1572 51.2814 20.4823 51.8529 20.7188C52.4441 20.9553 53.1437 21.0735 53.9516 21.0735C54.7793 21.0735 55.4789 20.9553 56.0504 20.7188C56.6416 20.4823 57.1146 20.1572 57.4693 19.7433C57.8437 19.3295 58.1196 18.8565 58.297 18.3244C58.4744 17.7726 58.563 17.1913 58.563 16.5804C58.563 15.9695 58.4744 15.398 58.297 14.8659C58.1196 14.3338 57.8437 13.8707 57.4693 13.4765C57.1146 13.0627 56.6416 12.7375 56.0504 12.5011C55.4789 12.2646 54.7793 12.1463 53.9516 12.1463C53.1239 12.1463 52.4244 12.2646 51.8529 12.5011C51.2814 12.7375 50.8084 13.0627 50.434 13.4765C50.0595 13.8707 49.7836 14.3338 49.6063 14.8659C49.4486 15.398 49.3698 15.9695 49.3698 16.5804ZM66.4233 9.21987V17.0238C66.4233 18.5609 66.7288 19.6546 67.3397 20.305C67.9703 20.9356 68.7881 21.2509 69.7932 21.2509C70.3252 21.2509 70.8278 21.1721 71.3007 21.0144C71.7934 20.8371 72.2171 20.5809 72.5718 20.2458C72.9266 19.8911 73.2024 19.4477 73.3995 18.9156C73.6163 18.3835 73.7247 17.7529 73.7247 17.0238V9.21987H77.331V24H73.7247V23.4088C73.7444 23.0147 73.8528 22.6008 74.0498 22.1673C74.2469 21.7337 74.4144 21.3199 74.5524 20.9257L73.9316 20.6893C73.7937 21.0834 73.6557 21.5169 73.5178 21.9899C73.3798 22.4432 73.163 22.8077 72.8674 23.0836C72.5718 23.3792 72.2664 23.6157 71.9511 23.7931C71.6555 23.9704 71.3303 24.1084 70.9756 24.2069C70.6406 24.3055 70.2661 24.3646 69.8523 24.3843C69.4581 24.4237 69.0049 24.4434 68.4925 24.4434C67.7634 24.4434 67.0539 24.335 66.3642 24.1182C65.6941 23.9015 65.0931 23.5862 64.561 23.1723C64.0289 22.7388 63.5954 22.2067 63.2603 21.5761C62.945 20.9257 62.7874 20.1867 62.7874 19.359V9.21987H66.4233ZM82.0759 18.8565C82.1153 19.1521 82.204 19.4477 82.342 19.7433C82.4996 20.0192 82.7164 20.2754 82.9923 20.5119C83.2879 20.7287 83.6426 20.9159 84.0565 21.0735C84.4703 21.2115 84.9531 21.2805 85.5049 21.2805C86.6873 21.2805 87.5249 21.1031 88.0175 20.7484C88.5102 20.3739 88.7565 19.97 88.7565 19.5364C88.7565 19.0634 88.5003 18.6989 87.988 18.4427C87.4953 18.1865 86.8647 17.9599 86.0961 17.7628C85.3473 17.5657 84.5294 17.3785 83.6426 17.2011C82.7755 17.0041 81.9577 16.7479 81.1891 16.4326C80.4402 16.0976 79.8096 15.664 79.2973 15.1319C78.8046 14.5998 78.5582 13.9002 78.5582 13.0331C78.5582 12.4814 78.6863 11.9493 78.9425 11.4369C79.2184 10.9245 79.6323 10.4713 80.1841 10.0771C80.7556 9.68298 81.465 9.36767 82.3124 9.13119C83.1598 8.8947 84.155 8.77646 85.298 8.77646C86.5395 8.77646 87.5938 8.92427 88.4609 9.21987C89.328 9.51547 90.0375 9.89975 90.5893 10.3727C91.1411 10.826 91.5451 11.3384 91.8012 11.9099C92.0574 12.4814 92.1855 13.043 92.1855 13.5948H88.5496C88.5496 13.1021 88.2639 12.708 87.6924 12.4124C87.1209 12.0971 86.3523 11.9394 85.3867 11.9394C84.4999 11.9394 83.7806 12.0478 83.2288 12.2646C82.677 12.4616 82.4011 12.7572 82.4011 13.1514C82.4011 13.4864 82.6474 13.7426 83.1401 13.9199C83.6525 14.0973 84.2831 14.2648 85.0319 14.4225C85.7808 14.5604 86.5986 14.7279 87.4854 14.925C88.3723 15.1221 89.1901 15.398 89.9389 15.7527C90.6878 16.0877 91.3086 16.5508 91.8012 17.142C92.3136 17.7332 92.5698 18.4919 92.5698 19.4182C92.5698 20.0882 92.4122 20.7287 92.0968 21.3396C91.8012 21.9505 91.348 22.4924 90.7371 22.9654C90.1459 23.4186 89.4069 23.7832 88.5201 24.0591C87.653 24.335 86.6479 24.473 85.5049 24.473C84.1845 24.473 83.0613 24.2956 82.135 23.9409C81.2088 23.5862 80.46 23.1428 79.8885 22.6107C79.317 22.0589 78.9031 21.448 78.6469 20.7779C78.3907 20.1079 78.2626 19.4674 78.2626 18.8565H82.0759Z" fill="#603DEA"/>
<path d="M99.4195 17.4421C97.2565 17.4421 95.5001 19.1986 95.5001 21.3615C95.5001 23.5244 97.2565 25.2809 99.4195 25.2809C101.582 25.2809 103.339 23.5244 103.339 21.3615C103.339 19.1986 101.582 17.4421 99.4195 17.4421ZM99.4195 24.7148C97.5759 24.7148 96.0662 23.2196 96.0662 21.3615C96.0662 19.5034 97.5759 18.0083 99.4195 18.0083C101.263 18.0083 102.758 19.5034 102.758 21.3615C102.758 23.2196 101.263 24.7148 99.4195 24.7148ZM101.074 20.6357C101.074 19.9099 100.668 19.3873 99.7678 19.3873H97.9678V23.4228H98.6356V21.8841H99.1727L100.378 23.4228H101.205L99.9566 21.8696C100.682 21.768 101.074 21.2889 101.074 20.6357ZM98.6356 19.968H99.5791C100.203 19.968 100.392 20.2147 100.392 20.6502C100.392 21.0712 100.203 21.347 99.5791 21.347H98.6356V19.968Z" fill="#603DEA"/>
</svg>
