<svg width="316" height="44" viewBox="0 0 316 44" fill="none" xmlns="http://www.w3.org/2000/svg">
<path fill-rule="evenodd" clip-rule="evenodd" d="M11.9808 7.48828C5.36399 7.48828 0 12.8523 0 19.4691V25.4595C0 32.0763 5.36399 37.4403 11.9808 37.4403C18.5976 37.4403 23.9616 32.0763 23.9616 25.4595V19.4691C23.9616 12.8523 18.5976 7.48828 11.9808 7.48828ZM10.3477 29.7921L17.3365 22.3041V22.3042C17.3925 22.2442 17.4329 22.1713 17.454 22.092C17.4751 22.0126 17.4764 21.9293 17.4576 21.8494C17.4388 21.7695 17.4007 21.6955 17.3465 21.6338C17.2923 21.5722 17.2237 21.5249 17.1468 21.4961L13.5507 20.1476L14.4659 15.5718C14.4872 15.4653 14.4732 15.3547 14.426 15.2569C14.3788 15.1591 14.301 15.0793 14.2043 15.0297C14.1077 14.9801 13.9975 14.9634 13.8905 14.9821C13.7835 15.0008 13.6855 15.0538 13.6114 15.1333L6.62257 22.6213C6.56656 22.6813 6.52621 22.7542 6.50509 22.8335C6.48397 22.9128 6.48273 22.9961 6.50149 23.076C6.52025 23.1559 6.55842 23.23 6.61263 23.2916C6.66684 23.3532 6.7354 23.4006 6.81226 23.4294L10.4084 24.7779L9.49321 29.3536C9.4719 29.4601 9.48592 29.5707 9.53312 29.6685C9.58033 29.7663 9.65816 29.8461 9.75481 29.8957C9.85145 29.9453 9.96163 29.962 10.0686 29.9433C10.1756 29.9246 10.2736 29.8715 10.3477 29.7921Z" fill="black"/>
<path d="M192.071 32.599C190.554 32.599 189.183 32.3328 187.958 31.8003C186.76 31.2678 185.722 30.5357 184.843 29.6038C183.991 28.672 183.325 27.5671 182.846 26.2892C182.394 25.0112 182.167 23.6268 182.167 22.1358C182.167 20.6449 182.394 19.2471 182.846 17.9425C183.325 16.638 183.991 15.5064 184.843 14.548C185.722 13.5629 186.76 12.7908 187.958 12.2317C189.183 11.6726 190.554 11.393 192.071 11.393C193.429 11.393 194.627 11.6193 195.666 12.0719C196.704 12.5245 197.609 13.1635 198.381 13.9889C198.781 14.4415 199.074 15.0139 199.26 15.7061C199.473 16.3717 199.686 16.9974 199.899 17.5831L200.458 17.3834C200.272 16.8243 200.072 16.212 199.859 15.5464C199.646 14.8541 199.539 14.2019 199.539 13.5895V3.0464H202.335V32H199.539V30.5623C199.539 29.95 199.646 29.311 199.859 28.6454C200.072 27.9798 200.272 27.3541 200.458 26.7684L199.899 26.6086C199.713 27.1677 199.513 27.7934 199.3 28.4856C199.087 29.1779 198.767 29.737 198.341 30.1629C197.596 30.935 196.704 31.5341 195.666 31.9601C194.627 32.386 193.429 32.599 192.071 32.599ZM184.963 22.1358C184.963 23.2274 185.096 24.2524 185.362 25.2109C185.655 26.1427 186.081 26.9681 186.64 27.6869C187.226 28.3791 187.971 28.9249 188.877 29.3243C189.782 29.7236 190.847 29.9233 192.071 29.9233C193.296 29.9233 194.374 29.7236 195.306 29.3243C196.238 28.9249 197.01 28.3791 197.623 27.6869C198.262 26.9681 198.741 26.1427 199.06 25.2109C199.38 24.2524 199.539 23.2274 199.539 22.1358C199.539 21.0442 199.38 20.0059 199.06 19.0208C198.741 18.0357 198.262 17.1837 197.623 16.4649C197.01 15.7194 196.238 15.1337 195.306 14.7077C194.374 14.2817 193.296 14.0687 192.071 14.0687C190.847 14.0687 189.782 14.2817 188.877 14.7077C187.971 15.1337 187.226 15.7194 186.64 16.4649C186.081 17.1837 185.655 18.0357 185.362 19.0208C185.096 20.0059 184.963 21.0442 184.963 22.1358ZM204.146 21.8962C204.146 20.4052 204.386 19.0208 204.865 17.7428C205.371 16.4649 206.063 15.36 206.942 14.4282C207.82 13.4963 208.872 12.7642 210.097 12.2317C211.321 11.6992 212.666 11.433 214.13 11.433C215.648 11.433 217.006 11.7125 218.204 12.2716C219.402 12.8041 220.427 13.5363 221.279 14.4681C222.131 15.3999 222.77 16.4782 223.196 17.7029C223.648 18.9276 223.875 20.2056 223.875 21.5368C223.875 21.7498 223.875 22.0426 223.875 22.4154C223.875 22.7881 223.861 23.0543 223.835 23.2141H207.022C207.022 23.9063 207.168 24.6518 207.461 25.4505C207.78 26.2492 208.26 26.9814 208.899 27.647C209.537 28.3126 210.336 28.8717 211.295 29.3243C212.253 29.7503 213.385 29.9633 214.689 29.9633C215.541 29.9633 216.3 29.8568 216.966 29.6438C217.631 29.4042 218.204 29.1113 218.683 28.7652C219.189 28.3924 219.601 27.9931 219.921 27.5671C220.24 27.1411 220.453 26.7151 220.56 26.2892H223.435C223.302 26.795 223.036 27.4207 222.637 28.1661C222.237 28.885 221.691 29.5772 220.999 30.2428C220.307 30.9084 219.455 31.4808 218.443 31.9601C217.432 32.4127 216.247 32.639 214.889 32.639C213.132 32.639 211.588 32.3594 210.256 31.8003C208.925 31.2412 207.807 30.4824 206.902 29.524C205.996 28.5389 205.304 27.394 204.825 26.0895C204.372 24.7849 204.146 23.3871 204.146 21.8962ZM220.839 20.5384C220.839 19.6864 220.68 18.8744 220.36 18.1023C220.067 17.3036 219.628 16.6113 219.042 16.0256C218.483 15.4399 217.791 14.974 216.966 14.6278C216.14 14.2817 215.208 14.1087 214.17 14.1087C213.105 14.1087 212.133 14.295 211.255 14.6678C210.376 15.0405 209.617 15.5331 208.978 16.1454C208.366 16.7578 207.887 17.45 207.541 18.2221C207.195 18.9942 207.022 19.7663 207.022 20.5384H220.839ZM227.567 25.8099C227.567 26.2359 227.66 26.6885 227.846 27.1677C228.059 27.647 228.405 28.0996 228.885 28.5256C229.364 28.9249 230.003 29.271 230.802 29.5639C231.6 29.8301 232.599 29.9633 233.797 29.9633C234.436 29.9633 235.115 29.9233 235.833 29.8435C236.579 29.7636 237.245 29.6038 237.83 29.3642C238.443 29.098 238.948 28.7252 239.348 28.246C239.747 27.7668 239.947 27.1411 239.947 26.369C239.947 25.6236 239.734 25.0245 239.308 24.5719C238.882 24.0927 238.31 23.7066 237.591 23.4138C236.898 23.1209 236.1 22.8946 235.195 22.7348C234.316 22.5485 233.411 22.3754 232.479 22.2157C231.547 22.0293 230.628 21.8296 229.723 21.6166C228.845 21.377 228.046 21.0575 227.327 20.6582C226.635 20.2588 226.076 19.753 225.65 19.1406C225.224 18.5016 225.011 17.7029 225.011 16.7444C225.011 16.0788 225.21 15.4266 225.61 14.7876C226.036 14.1486 226.635 13.5895 227.407 13.1103C228.179 12.6044 229.124 12.2051 230.242 11.9122C231.361 11.5927 232.625 11.433 234.036 11.433C234.968 11.433 235.927 11.5661 236.912 11.8323C237.923 12.0719 238.842 12.458 239.667 12.9905C240.493 13.4963 241.172 14.1486 241.704 14.9473C242.237 15.7194 242.503 16.638 242.503 17.7029H239.747C239.747 17.0906 239.574 16.5581 239.228 16.1055C238.882 15.6529 238.443 15.2801 237.91 14.9873C237.378 14.6944 236.779 14.4814 236.113 14.3483C235.447 14.1885 234.795 14.1087 234.156 14.1087C232.159 14.1087 230.615 14.3882 229.524 14.9473C228.459 15.5064 227.926 16.2253 227.926 17.1039C227.926 17.7428 228.286 18.2221 229.004 18.5416C229.75 18.8611 230.682 19.1406 231.8 19.3802C232.918 19.6198 234.116 19.8595 235.394 20.0991C236.672 20.3387 237.87 20.6981 238.988 21.1773C240.107 21.6566 241.025 22.3089 241.744 23.1342C242.489 23.9329 242.862 25.0112 242.862 26.369C242.862 27.434 242.609 28.3658 242.103 29.1645C241.598 29.9633 240.919 30.6156 240.067 31.1214C239.241 31.6273 238.296 32 237.231 32.2396C236.166 32.5059 235.061 32.639 233.917 32.639C232.399 32.639 231.068 32.4526 229.923 32.0799C228.778 31.7338 227.82 31.2545 227.048 30.6422C226.302 30.0298 225.73 29.311 225.33 28.4856C224.958 27.6603 224.771 26.7684 224.771 25.8099H227.567ZM245.295 12.032H248.091V32H245.295V12.032ZM245.056 4.0448H248.25V7.23968H245.056V4.0448ZM260.26 32.639C258.823 32.639 257.505 32.3594 256.307 31.8003C255.109 31.2412 254.07 30.4824 253.192 29.524C252.313 28.5389 251.634 27.394 251.155 26.0895C250.676 24.7849 250.436 23.3871 250.436 21.8962C250.436 20.4052 250.676 19.0208 251.155 17.7428C251.634 16.4649 252.313 15.36 253.192 14.4282C254.07 13.4963 255.109 12.7642 256.307 12.2317C257.505 11.6992 258.823 11.433 260.26 11.433C261.565 11.433 262.723 11.6593 263.735 12.1119C264.773 12.5379 265.665 13.1369 266.41 13.909C266.836 14.3616 267.156 14.934 267.369 15.6262C267.582 16.3185 267.795 16.9441 268.008 17.5032L268.567 17.3036C268.354 16.7444 268.128 16.1321 267.888 15.4665C267.675 14.8009 267.542 14.1619 267.489 13.5496L267.409 12.032H270.204V32.5591C270.204 33.9169 270.045 35.1683 269.725 36.3131C269.406 37.4845 268.873 38.4829 268.128 39.3083C267.409 40.1603 266.45 40.8125 265.252 41.2652C264.081 41.7444 262.616 41.984 260.859 41.984C258.037 41.984 255.801 41.3317 254.15 40.0271C252.499 38.7226 251.647 36.8722 251.594 34.476H254.43C254.43 35.4611 254.656 36.2598 255.109 36.8722C255.561 37.5112 256.107 38.0037 256.746 38.3498C257.385 38.7226 258.037 38.9755 258.703 39.1086C259.395 39.2417 259.967 39.3083 260.42 39.3083C261.725 39.3083 262.816 39.1352 263.695 38.7891C264.6 38.4696 265.319 38.0037 265.851 37.3914C266.41 36.8056 266.81 36.1001 267.049 35.2748C267.289 34.4494 267.409 33.5442 267.409 32.5591C267.409 31.8669 267.422 31.2945 267.449 30.8419C267.475 30.3892 267.529 29.9633 267.608 29.5639C267.688 29.1645 267.795 28.7519 267.928 28.3259C268.088 27.8733 268.287 27.3009 268.527 26.6086L267.968 26.409C267.755 26.9681 267.542 27.5937 267.329 28.286C267.143 28.9516 266.863 29.5107 266.49 29.9633C265.745 30.8152 264.853 31.4808 263.815 31.9601C262.776 32.4127 261.591 32.639 260.26 32.639ZM260.34 14.1087C259.169 14.1087 258.144 14.3084 257.265 14.7077C256.386 15.1071 255.641 15.6529 255.029 16.3451C254.443 17.0373 253.99 17.8627 253.671 18.8211C253.378 19.7796 253.232 20.8046 253.232 21.8962C253.232 22.9878 253.378 24.0261 253.671 25.0112C253.99 25.9963 254.443 26.8616 255.029 27.607C255.641 28.3259 256.386 28.8983 257.265 29.3243C258.144 29.7503 259.169 29.9633 260.34 29.9633C261.432 29.9633 262.404 29.7769 263.255 29.4042C264.107 29.0048 264.826 28.4723 265.412 27.8067C266.024 27.1145 266.49 26.3291 266.81 25.4505C267.156 24.5453 267.356 23.5735 267.409 22.5352V21.2572C267.356 20.2189 267.156 19.2737 266.81 18.4218C266.49 17.5432 266.024 16.7844 265.412 16.1454C264.826 15.5064 264.107 15.0139 263.255 14.6678C262.404 14.295 261.432 14.1087 260.34 14.1087ZM274.203 12.032H276.998V12.5512C276.998 13.1635 276.878 13.8025 276.639 14.4681C276.399 15.1337 276.173 15.7327 275.96 16.2652L276.519 16.5048C276.732 15.9724 276.985 15.3866 277.278 14.7476C277.597 14.082 277.983 13.5496 278.436 13.1502C278.915 12.7508 279.394 12.4447 279.874 12.2317C280.353 11.9921 280.845 11.819 281.351 11.7125C281.884 11.5794 282.443 11.4995 283.028 11.4729C283.641 11.4463 284.32 11.433 285.065 11.433C286.104 11.433 287.062 11.5794 287.941 11.8723C288.846 12.1651 289.631 12.6044 290.297 13.1901C290.962 13.7492 291.482 14.4548 291.854 15.3068C292.227 16.1587 292.413 17.1571 292.413 18.302V32H289.618V20.2988C289.618 18.0623 289.179 16.4383 288.3 15.4266C287.448 14.4148 286.104 13.909 284.266 13.909C283.281 13.909 282.35 14.0421 281.471 14.3084C280.592 14.548 279.82 14.934 279.155 15.4665C278.489 15.9724 277.957 16.638 277.557 17.4633C277.185 18.262 276.998 19.2072 276.998 20.2988V32H274.203V12.032ZM297.423 18.7412H302.735V13.1901H305.53V18.7412H311.081V21.3371H305.53V26.9681H302.735V21.3371H297.423V18.7412Z" fill="black"/>
<path d="M38.3163 12.032H43.1885V12.3515C43.1885 13.1502 43.0287 14.0022 42.7092 14.9074C42.3898 15.786 42.0836 16.6113 41.7907 17.3834L42.6294 17.7428C42.7891 17.3701 42.9356 16.9708 43.0687 16.5448C43.2284 16.0922 43.4015 15.6529 43.5878 15.2269C43.7742 14.8009 43.9872 14.4015 44.2268 14.0288C44.4664 13.6294 44.746 13.31 45.0655 13.0703C45.9174 12.4047 46.8093 11.9654 47.7412 11.7524C48.673 11.5395 49.7912 11.433 51.0958 11.433C52.1075 11.433 53.0527 11.5794 53.9313 11.8723C54.8099 12.1651 55.5686 12.6044 56.2076 13.1901C56.8732 13.7492 57.3924 14.4548 57.7651 15.3068C58.1379 16.1587 58.3242 17.1571 58.3242 18.302V32H53.4121V21.8163C53.4121 19.8994 53.0527 18.5016 52.3338 17.623C51.6416 16.7178 50.5633 16.2652 49.099 16.2652C48.3003 16.2652 47.5415 16.3717 46.8227 16.5847C46.1038 16.7977 45.4781 17.1438 44.9457 17.623C44.4132 18.0756 43.9872 18.6481 43.6677 19.3403C43.3482 20.0325 43.1885 20.8579 43.1885 21.8163V32H38.3163V12.032ZM60.6109 12.032H65.4431V32H60.6109V12.032ZM60.3313 4.0448H65.6428V9.0368H60.3313V4.0448ZM81.0247 12.032V16.3052H75.833V25.2908C75.833 26.1427 76.0327 26.7151 76.4321 27.008C76.8581 27.3009 77.537 27.4473 78.4688 27.4473H80.825V32H75.9928C75.0609 32 74.2755 31.8003 73.6366 31.401C72.9976 31.0016 72.4784 30.4824 72.0791 29.8435C71.6797 29.2045 71.3868 28.4856 71.2005 27.6869C71.0407 26.8882 70.9608 26.0895 70.9608 25.2908V16.3052H66.9672V12.032H70.9608V4.4841H75.833V12.032H81.0247ZM82.4128 32V12.032H87.285V12.631C87.285 13.4031 87.1119 14.2152 86.7658 15.0671C86.4463 15.9191 86.1402 16.6912 85.8473 17.3834L86.686 17.7428C86.8457 17.3967 87.0054 17.024 87.1652 16.6246C87.3249 16.1987 87.498 15.7993 87.6844 15.4266C87.8707 15.0272 88.0837 14.6545 88.3233 14.3084C88.563 13.9622 88.8425 13.6694 89.162 13.4298C89.6945 13.0304 90.2403 12.6976 90.7994 12.4314C91.3585 12.1651 91.9575 11.9654 92.5965 11.8323C93.2621 11.6726 93.9809 11.5661 94.753 11.5128C95.5251 11.4596 96.4037 11.433 97.3888 11.433V15.9857C96.1641 15.9857 94.9394 16.1055 93.7147 16.3451C92.5166 16.5847 91.4383 16.9974 90.4799 17.5831C89.5214 18.1422 88.7493 18.8877 88.1636 19.8195C87.5779 20.7514 87.285 21.9095 87.285 23.294V32H82.4128ZM108.889 32.639C107.185 32.639 105.627 32.386 104.216 31.8802C102.805 31.3743 101.607 30.6555 100.622 29.7236C99.637 28.7918 98.8649 27.6736 98.3058 26.369C97.7733 25.0378 97.5071 23.5735 97.5071 21.9761C97.5071 20.3786 97.7733 18.9276 98.3058 17.623C98.8649 16.3185 99.637 15.2136 100.622 14.3084C101.607 13.3765 102.805 12.671 104.216 12.1917C105.627 11.6859 107.185 11.433 108.889 11.433C110.619 11.433 112.177 11.6992 113.561 12.2317C114.972 12.7375 116.17 13.4564 117.156 14.3882C118.167 15.3201 118.939 16.4383 119.472 17.7428C120.031 19.0208 120.311 20.4319 120.311 21.9761C120.311 23.5203 120.031 24.9446 119.472 26.2492C118.939 27.5538 118.167 28.6853 117.156 29.6438C116.17 30.5756 114.972 31.3078 113.561 31.8403C112.177 32.3727 110.619 32.639 108.889 32.639ZM102.699 21.9761C102.699 22.8014 102.819 23.5868 103.058 24.3323C103.298 25.0511 103.657 25.6901 104.136 26.2492C104.642 26.8083 105.281 27.2476 106.053 27.5671C106.852 27.8866 107.797 28.0463 108.889 28.0463C110.007 28.0463 110.952 27.8866 111.724 27.5671C112.523 27.2476 113.162 26.8083 113.641 26.2492C114.147 25.6901 114.52 25.0511 114.759 24.3323C114.999 23.5868 115.119 22.8014 115.119 21.9761C115.119 21.1507 114.999 20.3786 114.759 19.6598C114.52 18.9409 114.147 18.3153 113.641 17.7828C113.162 17.2237 112.523 16.7844 111.724 16.4649C110.952 16.1454 110.007 15.9857 108.889 15.9857C107.771 15.9857 106.825 16.1454 106.053 16.4649C105.281 16.7844 104.642 17.2237 104.136 17.7828C103.631 18.3153 103.258 18.9409 103.018 19.6598C102.805 20.3786 102.699 21.1507 102.699 21.9761ZM125.738 12.032V22.5751C125.738 24.6518 126.151 26.1294 126.976 27.008C127.828 27.86 128.933 28.286 130.291 28.286C131.01 28.286 131.689 28.1795 132.328 27.9665C132.993 27.7268 133.566 27.3807 134.045 26.9281C134.524 26.4489 134.897 25.8499 135.163 25.131C135.456 24.4122 135.602 23.5602 135.602 22.5751V12.032H140.474V32H135.602V31.2013C135.629 30.6688 135.775 30.1097 136.042 29.524C136.308 28.9382 136.534 28.3791 136.72 27.8467L135.882 27.5272C135.695 28.0596 135.509 28.6454 135.323 29.2844C135.136 29.8967 134.843 30.3892 134.444 30.762C134.045 31.1613 133.632 31.4808 133.206 31.7204C132.807 31.9601 132.367 32.1464 131.888 32.2796C131.436 32.4127 130.93 32.4925 130.371 32.5192C129.838 32.5724 129.226 32.599 128.534 32.599C127.548 32.599 126.59 32.4526 125.658 32.1597C124.753 31.8669 123.941 31.4409 123.222 30.8818C122.503 30.2961 121.918 29.5772 121.465 28.7252C121.039 27.8467 120.826 26.8483 120.826 25.73V12.032H125.738ZM146.885 25.0511C146.938 25.4505 147.058 25.8499 147.244 26.2492C147.457 26.622 147.75 26.9681 148.123 27.2876C148.522 27.5804 149.001 27.8333 149.561 28.0463C150.12 28.2327 150.772 28.3259 151.517 28.3259C153.115 28.3259 154.246 28.0863 154.912 27.607C155.578 27.1012 155.91 26.5554 155.91 25.9697C155.91 25.3307 155.564 24.8381 154.872 24.492C154.206 24.1459 153.354 23.8397 152.316 23.5735C151.304 23.3073 150.199 23.0543 149.001 22.8147C147.83 22.5485 146.725 22.2024 145.687 21.7764C144.675 21.3238 143.823 20.738 143.131 20.0192C142.465 19.3004 142.132 18.3552 142.132 17.1837C142.132 16.4383 142.305 15.7194 142.652 15.0272C143.024 14.335 143.583 13.7226 144.329 13.1901C145.101 12.6577 146.059 12.2317 147.204 11.9122C148.349 11.5927 149.694 11.433 151.238 11.433C152.915 11.433 154.34 11.6326 155.511 12.032C156.682 12.4314 157.641 12.9505 158.386 13.5895C159.132 14.2019 159.678 14.8941 160.024 15.6662C160.37 16.4383 160.543 17.1971 160.543 17.9425H155.631C155.631 17.2769 155.245 16.7444 154.473 16.3451C153.701 15.9191 152.662 15.7061 151.358 15.7061C150.16 15.7061 149.188 15.8525 148.442 16.1454C147.697 16.4116 147.324 16.811 147.324 17.3435C147.324 17.7961 147.657 18.1422 148.322 18.3818C149.015 18.6214 149.867 18.8477 150.878 19.0607C151.89 19.2471 152.995 19.4734 154.193 19.7396C155.391 20.0059 156.496 20.3786 157.508 20.8579C158.519 21.3105 159.358 21.9361 160.024 22.7348C160.716 23.5336 161.062 24.5586 161.062 25.8099C161.062 26.7151 160.849 27.5804 160.423 28.4058C160.024 29.2311 159.411 29.9633 158.586 30.6022C157.787 31.2146 156.789 31.7071 155.591 32.0799C154.419 32.4526 153.062 32.639 151.517 32.639C149.734 32.639 148.216 32.3994 146.965 31.9201C145.713 31.4409 144.702 30.8419 143.93 30.123C143.157 29.3775 142.598 28.5522 142.252 27.647C141.906 26.7418 141.733 25.8765 141.733 25.0511H146.885Z" fill="black"/>
<path d="M170.318 23.6522C167.396 23.6522 165.023 26.0252 165.023 28.9473C165.023 31.8694 167.396 34.2424 170.318 34.2424C173.24 34.2424 175.613 31.8694 175.613 28.9473C175.613 26.0252 173.24 23.6522 170.318 23.6522ZM170.318 33.4775C167.827 33.4775 165.788 31.4576 165.788 28.9473C165.788 26.437 167.827 24.4171 170.318 24.4171C172.808 24.4171 174.828 26.437 174.828 28.9473C174.828 31.4576 172.808 33.4775 170.318 33.4775ZM172.553 27.9667C172.553 26.9862 172.004 26.2802 170.788 26.2802H168.357V31.7321H169.259V29.6533H169.984L171.612 31.7321H172.73L171.043 29.6337C172.024 29.4964 172.553 28.8493 172.553 27.9667ZM169.259 27.0646H170.533C171.377 27.0646 171.632 27.398 171.632 27.9863C171.632 28.5551 171.377 28.9277 170.533 28.9277H169.259V27.0646Z" fill="black"/>
</svg>
