<svg width="120" height="120" viewBox="0 0 120 120" fill="none" xmlns="http://www.w3.org/2000/svg">
<rect x="17" y="32.25" width="90" height="57" rx="28.5" fill="#DFD8FB"/>
<path d="M98.6977 39.2847C102.666 43.4417 105.357 48.6508 106.45 54.2927C107.543 59.9346 106.993 65.7718 104.864 71.11C102.736 76.4481 99.1193 81.0627 94.4442 84.4048C89.7691 87.7469 84.2324 89.6758 78.4928 89.9622L77.0002 89.9997L52.3027 89.9922L60.9128 98.6097C61.534 99.2302 61.9178 100.049 61.9972 100.923C62.0767 101.798 61.8469 102.672 61.3477 103.395L60.9128 103.912C60.2923 104.533 59.4735 104.917 58.5991 104.997C57.7247 105.076 56.8501 104.846 56.1278 104.347L55.6102 103.912L40.5952 88.8972C39.9752 88.2758 39.5928 87.4566 39.5147 86.5822C39.4365 85.7078 39.6677 84.8337 40.1677 84.1123L40.5952 83.5947L55.6102 68.5798C56.2717 67.9154 57.1579 67.5228 58.0944 67.4795C59.0309 67.4361 59.9497 67.7451 60.6696 68.3456C61.3896 68.946 61.8585 69.7943 61.9841 70.7234C62.1096 71.6524 61.8826 72.5948 61.3477 73.3647L60.9128 73.8898L52.3027 82.4922H77.0002C82.7381 82.4927 88.2594 80.301 92.4348 76.3654C96.6102 72.4297 99.1242 67.0476 99.4628 61.3197L99.5003 59.9997C99.5093 54.0764 97.1743 48.39 93.0052 44.1822C92.3208 43.4897 91.9326 42.558 91.9228 41.5843C91.9129 40.6107 92.2822 39.6714 92.9524 38.9651C93.6227 38.2587 94.5414 37.8408 95.5143 37.7997C96.4871 37.7586 97.4378 38.0975 98.1652 38.7447L98.7053 39.2847H98.6977ZM67.8803 15.6522L68.4053 16.0797L83.4128 31.0947L83.8477 31.6197C84.2799 32.246 84.5114 32.9889 84.5114 33.7497C84.5114 34.5106 84.2799 35.2535 83.8477 35.8797L83.4128 36.4047L68.4053 51.4122L67.8803 51.8472C67.254 52.2794 66.5111 52.5109 65.7502 52.5109C64.9894 52.5109 64.2465 52.2794 63.6202 51.8472L63.0952 51.4122L62.6677 50.8872C62.2356 50.261 62.0041 49.5181 62.0041 48.7572C62.0041 47.9964 62.2356 47.2535 62.6677 46.6272L63.0952 46.1022L71.7052 37.4997H47.0002C41.2612 37.4994 35.7389 39.6922 31.5633 43.6294C27.3877 47.5666 24.8744 52.9506 24.5377 58.6797L24.5002 59.9997C24.5002 66.1497 26.9677 71.7147 30.9577 75.7798C31.5896 76.5012 31.921 77.4373 31.8839 78.3956C31.8467 79.3539 31.4439 80.2615 30.7581 80.9319C30.0723 81.6023 29.1558 81.9845 28.1969 81.9999C27.238 82.0153 26.3097 81.6628 25.6027 81.0147C21.553 76.8892 18.7815 71.6814 17.6217 66.0179C16.4619 60.3544 16.9631 54.4764 19.0651 49.091C21.1671 43.7057 24.7804 39.0424 29.4702 35.6621C34.16 32.2818 39.7265 30.3285 45.5002 30.0372L47.0002 29.9997L71.7052 29.9922L63.0952 21.3897L62.6677 20.8647C62.1738 20.1429 61.9477 19.271 62.0287 18.4001C62.1096 17.5292 62.4924 16.7139 63.1109 16.0954C63.7294 15.4769 64.5447 15.0941 65.4156 15.0132C66.2865 14.9322 67.1584 15.1583 67.8803 15.6522Z" fill="black"/>
</svg>
