<svg width="120" height="120" viewBox="0 0 120 120" fill="none" xmlns="http://www.w3.org/2000/svg">
<path d="M35 65H85L105 25H27L35 65ZM85 85C82.3478 85 79.8043 86.0536 77.9289 87.9289C76.0536 89.8043 75 92.3478 75 95C75 97.6522 76.0536 100.196 77.9289 102.071C79.8043 103.946 82.3478 105 85 105C87.6522 105 90.1957 103.946 92.0711 102.071C93.9464 100.196 95 97.6522 95 95C95 92.3478 93.9464 89.8043 92.0711 87.9289C90.1957 86.0536 87.6522 85 85 85ZM45 95C45 97.6522 43.9464 100.196 42.0711 102.071C40.1957 103.946 37.6522 105 35 105C32.3478 105 29.8043 103.946 27.9289 102.071C26.0536 100.196 25 97.6522 25 95C25 92.3478 26.0536 89.8043 27.9289 87.9289C29.8043 86.0536 32.3478 85 35 85C37.6522 85 40.1957 86.0536 42.0711 87.9289C43.9464 89.8043 45 92.3478 45 95Z" fill="#DFD8FB"/>
<path d="M15 15H25L27 25M27 25H105L85 65H35M27 25L35 65M35 65L23.535 76.465C20.385 79.615 22.615 85 27.07 85H85M85 85C82.3478 85 79.8043 86.0536 77.9289 87.9289C76.0536 89.8043 75 92.3478 75 95C75 97.6522 76.0536 100.196 77.9289 102.071C79.8043 103.946 82.3478 105 85 105C87.6522 105 90.1957 103.946 92.0711 102.071C93.9464 100.196 95 97.6522 95 95C95 92.3478 93.9464 89.8043 92.0711 87.9289C90.1957 86.0536 87.6522 85 85 85ZM45 95C45 97.6522 43.9464 100.196 42.0711 102.071C40.1957 103.946 37.6522 105 35 105C32.3478 105 29.8043 103.946 27.9289 102.071C26.0536 100.196 25 97.6522 25 95C25 92.3478 26.0536 89.8043 27.9289 87.9289C29.8043 86.0536 32.3478 85 35 85C37.6522 85 40.1957 86.0536 42.0711 87.9289C43.9464 89.8043 45 92.3478 45 95Z" stroke="black" stroke-width="8" stroke-linecap="round" stroke-linejoin="round"/>
</svg>
