<svg width="512" height="168" viewBox="0 0 512 168" fill="none" xmlns="http://www.w3.org/2000/svg">
<path d="M496.052 102.672L510.256 112.141C505.646 118.931 494.62 130.581 475.557 130.581C451.885 130.581 434.256 112.266 434.256 88.9665C434.256 64.1735 452.072 47.3535 473.564 47.3535C495.18 47.3535 505.77 64.5465 509.197 73.8285L511.066 78.5635L455.374 101.613C459.61 109.961 466.214 114.197 475.557 114.197C484.902 114.197 491.38 109.587 496.052 102.672ZM452.384 87.6595L489.574 72.2095C487.518 67.0395 481.414 63.3645 474.124 63.3645C464.843 63.3645 451.948 71.5875 452.384 87.6595Z" fill="white"/>
<path d="M407.406 4.93069H425.346V126.781H407.406V4.92969V4.93069Z" fill="white"/>
<path d="M379.124 50.593H396.442V124.6C396.442 155.311 378.314 167.957 356.884 167.957C336.701 167.957 324.554 154.377 320.006 143.351L335.891 136.747C338.756 143.537 345.671 151.574 356.884 151.574C370.651 151.574 379.124 143.039 379.124 127.092V121.112H378.501C374.389 126.095 366.54 130.58 356.573 130.58C335.766 130.58 316.703 112.452 316.703 89.092C316.703 65.606 335.766 47.292 356.573 47.292C366.478 47.292 374.389 51.715 378.501 56.574H379.124V50.594V50.593ZM380.369 89.092C380.369 74.39 370.589 63.675 358.13 63.675C345.546 63.675 334.956 74.39 334.956 89.092C334.956 103.606 345.546 114.134 358.13 114.134C370.59 114.197 380.37 103.606 380.37 89.092H380.369Z" fill="white"/>
<path d="M218.216 88.7805C218.216 112.764 199.528 130.393 176.603 130.393C153.679 130.393 134.99 112.702 134.99 88.7805C134.99 64.6725 153.679 47.1055 176.603 47.1055C199.528 47.1055 218.216 64.6725 218.216 88.7805ZM200.026 88.7805C200.026 73.8305 189.186 63.5505 176.603 63.5505C164.02 63.5505 153.18 73.8305 153.18 88.7805C153.18 103.606 164.02 114.01 176.603 114.01C189.187 114.01 200.026 103.606 200.026 88.7805Z" fill="white"/>
<path d="M309.105 88.9665C309.105 112.951 290.416 130.58 267.492 130.58C244.567 130.58 225.879 112.95 225.879 88.9665C225.879 64.8585 244.567 47.3535 267.492 47.3535C290.416 47.3535 309.105 64.7965 309.105 88.9665V88.9665ZM290.852 88.9665C290.852 74.0165 280.013 63.7365 267.429 63.7365C254.846 63.7365 244.006 74.0165 244.006 88.9665C244.006 103.793 254.846 114.197 267.429 114.197C280.075 114.197 290.852 103.731 290.852 88.9665Z" fill="white"/>
<path d="M66.5901 112.328C40.4881 112.328 20.0561 91.2718 20.0561 65.1698C20.0561 39.0688 40.4881 18.0128 66.5901 18.0128C80.6691 18.0128 90.9471 23.5568 98.5471 30.6588L111.069 18.1378C100.479 7.98381 86.3381 0.257812 66.5901 0.257812C30.8331 0.258813 0.744141 29.4138 0.744141 65.1698C0.744141 100.928 30.8331 130.082 66.5901 130.082C85.9021 130.082 100.479 123.728 111.879 111.892C123.59 100.18 127.203 83.7338 127.203 70.4028C127.203 66.2288 126.705 61.9308 126.144 58.7538H66.5901V76.0718H109.013C107.767 86.9118 104.341 94.3248 99.2951 99.3698C93.1901 105.538 83.5351 112.328 66.5901 112.328V112.328Z" fill="white"/>
</svg>
