<svg width="275" height="44" viewBox="0 0 275 44" fill="none" xmlns="http://www.w3.org/2000/svg">
<path d="M185.4 20.224C186.616 20.224 187.672 19.808 188.408 18.736H188.568L188.728 20H189.96V8.576H188.568V12.96H188.408C187.656 11.904 186.584 11.52 185.4 11.52C183.176 11.52 181.48 13.056 181.48 15.872C181.48 18.704 183.176 20.224 185.4 20.224ZM185.736 19.04C184.088 19.04 182.904 17.888 182.904 15.872C182.904 13.856 184.088 12.704 185.736 12.704C187.384 12.704 188.584 13.776 188.584 15.872C188.584 17.968 187.384 19.04 185.736 19.04ZM191.95 10.384C192.478 10.384 192.862 10 192.862 9.472C192.862 8.944 192.478 8.56 191.95 8.56C191.422 8.56 191.038 8.944 191.038 9.472C191.038 10 191.422 10.384 191.95 10.384ZM192.654 20V11.744H191.246V20H192.654ZM197.877 23.264C199.909 23.264 202.101 22.208 202.101 19.12V11.744H200.869L200.709 12.96H200.549C199.797 11.904 198.725 11.52 197.541 11.52C195.317 11.52 193.621 12.944 193.621 15.552C193.621 18.16 195.317 19.584 197.541 19.584C198.757 19.584 199.813 19.168 200.549 18.096H200.709V19.216C200.709 21.232 199.397 22.096 197.861 22.096C196.261 22.096 195.461 21.568 195.461 20.544H194.069V20.656C194.069 22.256 195.317 23.264 197.877 23.264ZM197.877 18.4C196.197 18.4 195.029 17.36 195.029 15.552C195.029 13.728 196.197 12.704 197.877 12.704C199.509 12.704 200.709 13.792 200.709 15.552C200.709 17.312 199.509 18.4 197.877 18.4ZM204.091 10.384C204.619 10.384 205.003 10 205.003 9.472C205.003 8.944 204.619 8.56 204.091 8.56C203.563 8.56 203.179 8.944 203.179 9.472C203.179 10 203.563 10.384 204.091 10.384ZM204.795 20V11.744H203.387V20H204.795ZM209.618 20.096C210.098 20.096 210.594 20.048 211.138 19.968V18.816C210.722 18.864 210.386 18.896 210.066 18.896C209.01 18.896 208.626 18.496 208.626 17.328V12.944H211.186V11.744H208.626V9.536H207.218V11.744H205.522V12.944H207.218V17.36C207.218 19.408 208.194 20.096 209.618 20.096ZM214.415 20.224C215.727 20.224 216.847 19.68 217.455 18.736H217.615L217.775 20H219.007V14.992C219.007 12.24 217.167 11.52 215.423 11.52C213.407 11.52 211.983 12.4 211.967 14.144V14.224H213.359V14.176C213.375 13.168 214.255 12.64 215.423 12.64C216.863 12.64 217.615 13.584 217.615 14.848V15.264C216.847 15.088 216.143 15.024 215.391 15.024C213.183 15.024 211.583 15.952 211.583 17.776C211.583 19.28 212.591 20.224 214.415 20.224ZM214.639 19.056C213.583 19.056 212.959 18.576 212.959 17.712C212.959 16.736 213.823 16.08 215.551 16.08C216.175 16.08 216.847 16.16 217.615 16.32C217.455 18.192 216.239 19.056 214.639 19.056ZM221.694 20V8.576H220.286V20H221.694ZM230.574 20.224C231.79 20.224 232.846 19.808 233.582 18.736H233.742L233.902 20H235.134V8.576H233.742V12.96H233.582C232.83 11.904 231.758 11.52 230.574 11.52C228.35 11.52 226.654 13.056 226.654 15.872C226.654 18.704 228.35 20.224 230.574 20.224ZM230.91 19.04C229.262 19.04 228.078 17.888 228.078 15.872C228.078 13.856 229.262 12.704 230.91 12.704C232.558 12.704 233.758 13.776 233.758 15.872C233.758 17.968 232.558 19.04 230.91 19.04ZM240.276 20.224C241.94 20.224 243.396 19.392 243.876 17.84H242.484C242.068 18.656 241.188 19.104 240.276 19.104C238.772 19.104 237.62 18.08 237.492 16.256H244.244C244.26 16.144 244.276 15.888 244.276 15.76C244.276 13.12 242.644 11.52 240.276 11.52C237.924 11.52 236.1 13.008 236.1 15.872C236.1 18.48 237.668 20.224 240.276 20.224ZM237.54 15.184C237.716 13.536 238.9 12.64 240.244 12.64C241.636 12.64 242.66 13.6 242.804 15.184H237.54ZM248.569 20.224C251.065 20.224 252.201 19.104 252.201 17.664C252.201 14.272 246.489 16.096 246.489 14.064C246.489 13.152 247.209 12.64 248.569 12.64C249.977 12.64 250.649 13.296 250.649 14.096V14.192H252.041V14.08C252.041 12.672 250.985 11.52 248.569 11.52C246.249 11.52 245.097 12.624 245.097 14.064C245.097 17.424 250.809 15.728 250.809 17.664C250.809 18.576 250.073 19.104 248.569 19.104C247.001 19.104 246.329 18.432 246.329 17.616V17.552H244.937V17.696C244.937 19.104 246.041 20.224 248.569 20.224ZM253.859 10.384C254.387 10.384 254.771 10 254.771 9.472C254.771 8.944 254.387 8.56 253.859 8.56C253.331 8.56 252.947 8.944 252.947 9.472C252.947 10 253.331 10.384 253.859 10.384ZM254.563 20V11.744H253.155V20H254.563ZM259.787 23.264C261.819 23.264 264.011 22.208 264.011 19.12V11.744H262.779L262.619 12.96H262.459C261.707 11.904 260.635 11.52 259.451 11.52C257.227 11.52 255.531 12.944 255.531 15.552C255.531 18.16 257.227 19.584 259.451 19.584C260.667 19.584 261.723 19.168 262.459 18.096H262.619V19.216C262.619 21.232 261.307 22.096 259.771 22.096C258.171 22.096 257.371 21.568 257.371 20.544H255.979V20.656C255.979 22.256 257.227 23.264 259.787 23.264ZM259.787 18.4C258.107 18.4 256.939 17.36 256.939 15.552C256.939 13.728 258.107 12.704 259.787 12.704C261.419 12.704 262.619 13.792 262.619 15.552C262.619 17.312 261.419 18.4 259.787 18.4ZM266.704 20V15.792C266.704 13.792 267.856 12.72 269.52 12.72C270.88 12.72 271.904 13.552 271.904 15.36V20H273.296V15.408C273.296 12.688 271.92 11.52 269.872 11.52C268.528 11.52 267.52 12.016 266.864 13.008H266.704L266.544 11.744H265.296V20H266.704ZM185.128 34.224C187.624 34.224 188.76 33.104 188.76 31.664C188.76 28.272 183.048 30.096 183.048 28.064C183.048 27.152 183.768 26.64 185.128 26.64C186.536 26.64 187.208 27.296 187.208 28.096V28.192H188.6V28.08C188.6 26.672 187.544 25.52 185.128 25.52C182.808 25.52 181.656 26.624 181.656 28.064C181.656 31.424 187.368 29.728 187.368 31.664C187.368 32.576 186.632 33.104 185.128 33.104C183.56 33.104 182.888 32.432 182.888 31.616V31.552H181.496V31.696C181.496 33.104 182.6 34.224 185.128 34.224ZM193.016 34.096C193.496 34.096 193.992 34.048 194.536 33.968V32.816C194.12 32.864 193.784 32.896 193.464 32.896C192.408 32.896 192.024 32.496 192.024 31.328V26.944H194.584V25.744H192.024V23.536H190.616V25.744H188.92V26.944H190.616V31.36C190.616 33.408 191.592 34.096 193.016 34.096ZM198.803 34.224C200.163 34.224 201.171 33.728 201.827 32.736H201.987L202.147 34H203.379V25.744H201.987V29.952C201.987 31.952 200.835 33.024 199.155 33.024C197.795 33.024 196.787 32.192 196.787 30.384V25.744H195.379V30.336C195.379 33.056 196.755 34.224 198.803 34.224ZM208.253 34.224C209.469 34.224 210.525 33.808 211.261 32.736H211.421L211.581 34H212.813V22.576H211.421V26.96H211.261C210.509 25.904 209.437 25.52 208.253 25.52C206.029 25.52 204.333 27.056 204.333 29.872C204.333 32.704 206.029 34.224 208.253 34.224ZM208.589 33.04C206.941 33.04 205.757 31.888 205.757 29.872C205.757 27.856 206.941 26.704 208.589 26.704C210.237 26.704 211.437 27.776 211.437 29.872C211.437 31.968 210.237 33.04 208.589 33.04ZM214.802 24.384C215.33 24.384 215.714 24 215.714 23.472C215.714 22.944 215.33 22.56 214.802 22.56C214.274 22.56 213.89 22.944 213.89 23.472C213.89 24 214.274 24.384 214.802 24.384ZM215.506 34V25.744H214.098V34H215.506ZM220.794 34.224C223.322 34.224 225.114 32.816 225.114 29.872C225.114 26.928 223.322 25.52 220.794 25.52C218.298 25.52 216.474 26.928 216.474 29.872C216.474 32.816 218.298 34.224 220.794 34.224ZM220.794 33.056C219.098 33.056 217.898 32.016 217.898 29.872C217.898 27.712 219.098 26.688 220.794 26.688C222.49 26.688 223.69 27.712 223.69 29.872C223.69 32.016 222.506 33.056 220.794 33.056Z" fill="white"/>
<path d="M38.7903 11.8857H43.6982V12.2075C43.6982 13.0121 43.5373 13.8703 43.2154 14.7822C42.8936 15.6672 42.5852 16.4986 42.2902 17.2763L43.135 17.6384C43.2959 17.2629 43.4434 16.8606 43.5775 16.4315C43.7384 15.9756 43.9127 15.5331 44.1005 15.104C44.2882 14.6749 44.5027 14.2726 44.7441 13.8971C44.9855 13.4949 45.2671 13.173 45.5889 12.9317C46.4471 12.2612 47.3456 11.8187 48.2842 11.6041C49.2229 11.3896 50.3493 11.2823 51.6634 11.2823C52.6826 11.2823 53.6346 11.4298 54.5197 11.7248C55.4047 12.0198 56.169 12.4623 56.8127 13.0523C57.4832 13.6155 58.0061 14.3262 58.3816 15.1845C58.7571 16.0427 58.9448 17.0484 58.9448 18.2016V32H53.9967V21.7417C53.9967 19.8107 53.6346 18.4027 52.9105 17.5177C52.2132 16.6059 51.1271 16.1499 49.652 16.1499C48.8474 16.1499 48.0831 16.2572 47.359 16.4718C46.6349 16.6863 46.0046 17.035 45.4682 17.5177C44.9319 17.9736 44.5027 18.5502 44.1809 19.2475C43.8591 19.9448 43.6982 20.7762 43.6982 21.7417V32H38.7903V11.8857ZM61.2482 11.8857H66.1159V32H61.2482V11.8857ZM60.9666 3.84H66.317V8.86857H60.9666V3.84ZM81.8116 11.8857V16.1902H76.5819V25.2416C76.5819 26.0998 76.783 26.6764 77.1853 26.9714C77.6144 27.2664 78.2983 27.4139 79.237 27.4139H81.6105V32H76.7428C75.8041 32 75.013 31.7989 74.3693 31.3966C73.7257 30.9943 73.2027 30.4713 72.8004 29.8277C72.3981 29.184 72.1031 28.4599 71.9154 27.6553C71.7545 26.8507 71.674 26.0462 71.674 25.2416V16.1902H67.6511V11.8857H71.674V4.28251H76.5819V11.8857H81.8116ZM83.2099 32V11.8857H88.1177V12.4891C88.1177 13.2669 87.9434 14.0849 87.5948 14.9431C87.2729 15.8013 86.9645 16.579 86.6695 17.2763L87.5143 17.6384C87.6752 17.2898 87.8361 16.9143 87.9971 16.512C88.158 16.0829 88.3323 15.6806 88.52 15.3051C88.7078 14.9029 88.9223 14.5274 89.1637 14.1787C89.4051 13.8301 89.6867 13.5351 90.0085 13.2937C90.5449 12.8914 91.0947 12.5562 91.6579 12.288C92.2211 12.0198 92.8245 11.8187 93.4681 11.6846C94.1386 11.5237 94.8627 11.4164 95.6405 11.3627C96.4182 11.3091 97.3033 11.2823 98.2956 11.2823V15.8683C97.0619 15.8683 95.8282 15.989 94.5945 16.2304C93.3877 16.4718 92.3015 16.8875 91.336 17.4775C90.3705 18.0407 89.5928 18.7916 89.0028 19.7303C88.4128 20.669 88.1177 21.8356 88.1177 23.2302V32H83.2099ZM109.88 32.6437C108.163 32.6437 106.594 32.3889 105.173 31.8793C103.752 31.3698 102.545 30.6456 101.553 29.707C100.56 28.7683 99.7825 27.6419 99.2193 26.3278C98.6829 24.9868 98.4147 23.5118 98.4147 21.9026C98.4147 20.2935 98.6829 18.8318 99.2193 17.5177C99.7825 16.2036 100.56 15.0906 101.553 14.1787C102.545 13.2401 103.752 12.5294 105.173 12.0466C106.594 11.5371 108.163 11.2823 109.88 11.2823C111.623 11.2823 113.192 11.5505 114.587 12.0869C116.008 12.5964 117.215 13.3205 118.207 14.2592C119.226 15.1979 120.004 16.3243 120.54 17.6384C121.104 18.9257 121.385 20.3471 121.385 21.9026C121.385 23.4581 121.104 24.893 120.54 26.2071C120.004 27.5212 119.226 28.661 118.207 29.6265C117.215 30.5652 116.008 31.3027 114.587 31.8391C113.192 32.3755 111.623 32.6437 109.88 32.6437ZM103.644 21.9026C103.644 22.734 103.765 23.5252 104.006 24.2761C104.248 25.0002 104.61 25.6439 105.093 26.2071C105.602 26.7703 106.246 27.2128 107.024 27.5346C107.828 27.8565 108.78 28.0174 109.88 28.0174C111.006 28.0174 111.958 27.8565 112.736 27.5346C113.541 27.2128 114.184 26.7703 114.667 26.2071C115.177 25.6439 115.552 25.0002 115.793 24.2761C116.035 23.5252 116.155 22.734 116.155 21.9026C116.155 21.0712 116.035 20.2935 115.793 19.5694C115.552 18.8453 115.177 18.215 114.667 17.6786C114.184 17.1154 113.541 16.6729 112.736 16.3511C111.958 16.0293 111.006 15.8683 109.88 15.8683C108.753 15.8683 107.801 16.0293 107.024 16.3511C106.246 16.6729 105.602 17.1154 105.093 17.6786C104.583 18.215 104.208 18.8453 103.966 19.5694C103.752 20.2935 103.644 21.0712 103.644 21.9026ZM126.853 11.8857V22.5061C126.853 24.5979 127.268 26.0864 128.1 26.9714C128.958 27.8296 130.071 28.2587 131.439 28.2587C132.163 28.2587 132.847 28.1515 133.49 27.9369C134.161 27.6955 134.737 27.3469 135.22 26.891C135.703 26.4082 136.078 25.8048 136.346 25.0807C136.641 24.3566 136.789 23.4984 136.789 22.5061V11.8857H141.697V32H136.789V31.1954C136.816 30.659 136.963 30.0958 137.231 29.5058C137.5 28.9158 137.728 28.3526 137.915 27.8162L137.071 27.4944C136.883 28.0308 136.695 28.6208 136.507 29.2645C136.32 29.8813 136.025 30.3774 135.622 30.7529C135.22 31.1552 134.804 31.477 134.375 31.7184C133.973 31.9598 133.53 32.1475 133.048 32.2816C132.592 32.4157 132.082 32.4962 131.519 32.523C130.983 32.5766 130.366 32.6034 129.669 32.6034C128.676 32.6034 127.711 32.4559 126.772 32.1609C125.86 31.8659 125.042 31.4368 124.318 30.8736C123.594 30.2836 123.004 29.5595 122.548 28.7013C122.119 27.8162 121.904 26.8105 121.904 25.6841V11.8857H126.853ZM148.154 25.0002C148.208 25.4025 148.329 25.8048 148.516 26.2071C148.731 26.5826 149.026 26.9312 149.401 27.253C149.804 27.548 150.286 27.8028 150.849 28.0174C151.413 28.2051 152.07 28.299 152.821 28.299C154.43 28.299 155.57 28.0576 156.24 27.5749C156.911 27.0653 157.246 26.5155 157.246 25.9255C157.246 25.2818 156.897 24.7857 156.2 24.437C155.529 24.0884 154.671 23.78 153.625 23.5118C152.606 23.2436 151.493 22.9888 150.286 22.7474C149.106 22.4792 147.993 22.1306 146.947 21.7015C145.928 21.2456 145.07 20.6555 144.373 19.9314C143.702 19.2073 143.367 18.2552 143.367 17.0752C143.367 16.3243 143.541 15.6002 143.89 14.9029C144.265 14.2056 144.829 13.5887 145.58 13.0523C146.357 12.516 147.323 12.0869 148.476 11.765C149.629 11.4432 150.984 11.2823 152.539 11.2823C154.229 11.2823 155.664 11.4834 156.844 11.8857C158.024 12.288 158.989 12.811 159.74 13.4546C160.491 14.0715 161.041 14.7688 161.389 15.5465C161.738 16.3243 161.912 17.0886 161.912 17.8395H156.964C156.964 17.1691 156.575 16.6327 155.798 16.2304C155.02 15.8013 153.974 15.5867 152.66 15.5867C151.453 15.5867 150.474 15.7342 149.723 16.0293C148.972 16.2974 148.597 16.6997 148.597 17.2361C148.597 17.692 148.932 18.0407 149.602 18.2821C150.3 18.5234 151.158 18.7514 152.177 18.9659C153.196 19.1537 154.309 19.3816 155.516 19.6498C156.723 19.918 157.836 20.2935 158.855 20.7762C159.874 21.2322 160.719 21.8624 161.389 22.667C162.087 23.4715 162.435 24.5041 162.435 25.7646C162.435 26.6764 162.221 27.548 161.792 28.3794C161.389 29.2108 160.773 29.9483 159.941 30.592C159.137 31.2088 158.131 31.705 156.924 32.0805C155.744 32.4559 154.376 32.6437 152.821 32.6437C151.024 32.6437 149.495 32.4023 148.235 31.9195C146.974 31.4368 145.955 30.8334 145.177 30.1093C144.4 29.3583 143.836 28.5269 143.488 27.6151C143.139 26.7032 142.965 25.8316 142.965 25.0002H148.154Z" fill="white"/>
<path fill-rule="evenodd" clip-rule="evenodd" d="M12.0686 6.54297C5.40328 6.54297 0 11.9462 0 18.6115V24.6458C0 31.3111 5.40328 36.7144 12.0686 36.7144C18.7339 36.7144 24.1371 31.3111 24.1371 24.6458V18.6115C24.1371 11.9463 18.7339 6.54297 12.0686 6.54297ZM10.4268 29.011L17.4668 21.4682V21.4682C17.5232 21.4078 17.5638 21.3344 17.5851 21.2545C17.6064 21.1746 17.6076 21.0906 17.5887 21.0102C17.5698 20.9297 17.5314 20.8551 17.4768 20.793C17.4222 20.7309 17.3531 20.6832 17.2757 20.6542L13.6532 19.2959L14.5751 14.6866C14.5966 14.5793 14.5825 14.4679 14.5349 14.3693C14.4874 14.2708 14.409 14.1904 14.3116 14.1404C14.2143 14.0905 14.1033 14.0736 13.9955 14.0925C13.8877 14.1113 13.789 14.1648 13.7143 14.2448L6.67433 21.7877C6.61791 21.8481 6.57726 21.9215 6.55599 22.0014C6.53472 22.0813 6.53347 22.1652 6.55237 22.2457C6.57127 22.3262 6.60972 22.4008 6.66432 22.4629C6.71893 22.525 6.788 22.5726 6.86542 22.6017L10.4879 23.9601L9.56601 28.5693C9.54454 28.6766 9.55866 28.788 9.60621 28.8865C9.65377 28.9851 9.73217 29.0654 9.82952 29.1154C9.92687 29.1653 10.0379 29.1822 10.1456 29.1633C10.2534 29.1445 10.3521 29.091 10.4268 29.011Z" fill="white"/>
</svg>
