<svg width="164" height="44" viewBox="0 0 164 44" fill="none" xmlns="http://www.w3.org/2000/svg">
<path d="M38.7913 11.8857H43.6992V12.2075C43.6992 13.0121 43.5382 13.8703 43.2164 14.7822C42.8946 15.6672 42.5862 16.4986 42.2912 17.2763L43.136 17.6384C43.2969 17.2629 43.4444 16.8606 43.5785 16.4315C43.7394 15.9756 43.9137 15.5331 44.1014 15.104C44.2892 14.6749 44.5037 14.2726 44.7451 13.8971C44.9865 13.4949 45.2681 13.173 45.5899 12.9317C46.4481 12.2612 47.3465 11.8187 48.2852 11.6041C49.2239 11.3896 50.3503 11.2823 51.6644 11.2823C52.6835 11.2823 53.6356 11.4298 54.5206 11.7248C55.4057 12.0198 56.17 12.4623 56.8137 13.0523C57.4841 13.6155 58.0071 14.3262 58.3826 15.1845C58.758 16.0427 58.9458 17.0484 58.9458 18.2016V32H53.9977V21.7417C53.9977 19.8107 53.6356 18.4027 52.9115 17.5177C52.2142 16.6059 51.128 16.1499 49.653 16.1499C48.8484 16.1499 48.0841 16.2572 47.36 16.4718C46.6358 16.6863 46.0056 17.035 45.4692 17.5177C44.9328 17.9736 44.5037 18.5502 44.1819 19.2475C43.8601 19.9448 43.6992 20.7762 43.6992 21.7417V32H38.7913V11.8857ZM61.2492 11.8857H66.1168V32H61.2492V11.8857ZM60.9676 3.84H66.318V8.86857H60.9676V3.84ZM81.8126 11.8857V16.1902H76.5829V25.2416C76.5829 26.0998 76.784 26.6764 77.1863 26.9714C77.6154 27.2664 78.2993 27.4139 79.238 27.4139H81.6114V32H76.7438C75.8051 32 75.014 31.7989 74.3703 31.3966C73.7266 30.9943 73.2037 30.4713 72.8014 29.8277C72.3991 29.184 72.1041 28.4599 71.9164 27.6553C71.7554 26.8507 71.675 26.0462 71.675 25.2416V16.1902H67.6521V11.8857H71.675V4.28251H76.5829V11.8857H81.8126ZM83.2108 32V11.8857H88.1187V12.4891C88.1187 13.2669 87.9444 14.0849 87.5958 14.9431C87.2739 15.8013 86.9655 16.579 86.6705 17.2763L87.5153 17.6384C87.6762 17.2898 87.8371 16.9143 87.998 16.512C88.159 16.0829 88.3333 15.6806 88.521 15.3051C88.7087 14.9029 88.9233 14.5274 89.1647 14.1787C89.406 13.8301 89.6876 13.5351 90.0095 13.2937C90.5458 12.8914 91.0956 12.5562 91.6588 12.288C92.222 12.0198 92.8255 11.8187 93.4691 11.6846C94.1396 11.5237 94.8637 11.4164 95.6415 11.3627C96.4192 11.3091 97.3042 11.2823 98.2966 11.2823V15.8683C97.0629 15.8683 95.8292 15.989 94.5955 16.2304C93.3887 16.4718 92.3025 16.8875 91.337 17.4775C90.3715 18.0407 89.5938 18.7916 89.0038 19.7303C88.4137 20.669 88.1187 21.8356 88.1187 23.2302V32H83.2108ZM109.881 32.6437C108.164 32.6437 106.595 32.3889 105.174 31.8793C103.753 31.3698 102.546 30.6456 101.553 29.707C100.561 28.7683 99.7834 27.6419 99.2202 26.3278C98.6839 24.9868 98.4157 23.5118 98.4157 21.9026C98.4157 20.2935 98.6839 18.8318 99.2202 17.5177C99.7834 16.2036 100.561 15.0906 101.553 14.1787C102.546 13.2401 103.753 12.5294 105.174 12.0466C106.595 11.5371 108.164 11.2823 109.881 11.2823C111.624 11.2823 113.193 11.5505 114.588 12.0869C116.009 12.5964 117.216 13.3205 118.208 14.2592C119.227 15.1979 120.005 16.3243 120.541 17.6384C121.105 18.9257 121.386 20.3471 121.386 21.9026C121.386 23.4581 121.105 24.893 120.541 26.2071C120.005 27.5212 119.227 28.661 118.208 29.6265C117.216 30.5652 116.009 31.3027 114.588 31.8391C113.193 32.3755 111.624 32.6437 109.881 32.6437ZM103.645 21.9026C103.645 22.734 103.766 23.5252 104.007 24.2761C104.249 25.0002 104.611 25.6439 105.094 26.2071C105.603 26.7703 106.247 27.2128 107.025 27.5346C107.829 27.8565 108.781 28.0174 109.881 28.0174C111.007 28.0174 111.959 27.8565 112.737 27.5346C113.542 27.2128 114.185 26.7703 114.668 26.2071C115.178 25.6439 115.553 25.0002 115.794 24.2761C116.036 23.5252 116.156 22.734 116.156 21.9026C116.156 21.0712 116.036 20.2935 115.794 19.5694C115.553 18.8453 115.178 18.215 114.668 17.6786C114.185 17.1154 113.542 16.6729 112.737 16.3511C111.959 16.0293 111.007 15.8683 109.881 15.8683C108.754 15.8683 107.802 16.0293 107.025 16.3511C106.247 16.6729 105.603 17.1154 105.094 17.6786C104.584 18.215 104.209 18.8453 103.967 19.5694C103.753 20.2935 103.645 21.0712 103.645 21.9026ZM126.854 11.8857V22.5061C126.854 24.5979 127.269 26.0864 128.101 26.9714C128.959 27.8296 130.072 28.2587 131.44 28.2587C132.164 28.2587 132.848 28.1515 133.491 27.9369C134.162 27.6955 134.738 27.3469 135.221 26.891C135.704 26.4082 136.079 25.8048 136.347 25.0807C136.642 24.3566 136.79 23.4984 136.79 22.5061V11.8857H141.698V32H136.79V31.1954C136.817 30.659 136.964 30.0958 137.232 29.5058C137.501 28.9158 137.729 28.3526 137.916 27.8162L137.072 27.4944C136.884 28.0308 136.696 28.6208 136.508 29.2645C136.321 29.8813 136.026 30.3774 135.623 30.7529C135.221 31.1552 134.805 31.477 134.376 31.7184C133.974 31.9598 133.531 32.1475 133.049 32.2816C132.593 32.4157 132.083 32.4962 131.52 32.523C130.984 32.5766 130.367 32.6034 129.67 32.6034C128.677 32.6034 127.712 32.4559 126.773 32.1609C125.861 31.8659 125.043 31.4368 124.319 30.8736C123.595 30.2836 123.005 29.5595 122.549 28.7013C122.12 27.8162 121.905 26.8105 121.905 25.6841V11.8857H126.854ZM148.155 25.0002C148.209 25.4025 148.329 25.8048 148.517 26.2071C148.732 26.5826 149.027 26.9312 149.402 27.253C149.805 27.548 150.287 27.8028 150.85 28.0174C151.414 28.2051 152.071 28.299 152.822 28.299C154.431 28.299 155.571 28.0576 156.241 27.5749C156.912 27.0653 157.247 26.5155 157.247 25.9255C157.247 25.2818 156.898 24.7857 156.201 24.437C155.53 24.0884 154.672 23.78 153.626 23.5118C152.607 23.2436 151.494 22.9888 150.287 22.7474C149.107 22.4792 147.994 22.1306 146.948 21.7015C145.929 21.2456 145.071 20.6555 144.374 19.9314C143.703 19.2073 143.368 18.2552 143.368 17.0752C143.368 16.3243 143.542 15.6002 143.891 14.9029C144.266 14.2056 144.83 13.5887 145.581 13.0523C146.358 12.516 147.324 12.0869 148.477 11.765C149.63 11.4432 150.985 11.2823 152.54 11.2823C154.23 11.2823 155.664 11.4834 156.845 11.8857C158.025 12.288 158.99 12.811 159.741 13.4546C160.492 14.0715 161.042 14.7688 161.39 15.5465C161.739 16.3243 161.913 17.0886 161.913 17.8395H156.965C156.965 17.1691 156.576 16.6327 155.799 16.2304C155.021 15.8013 153.975 15.5867 152.661 15.5867C151.454 15.5867 150.475 15.7342 149.724 16.0293C148.973 16.2974 148.598 16.6997 148.598 17.2361C148.598 17.692 148.933 18.0407 149.603 18.2821C150.301 18.5234 151.159 18.7514 152.178 18.9659C153.197 19.1537 154.31 19.3816 155.517 19.6498C156.724 19.918 157.837 20.2935 158.856 20.7762C159.875 21.2322 160.72 21.8624 161.39 22.667C162.088 23.4715 162.436 24.5041 162.436 25.7646C162.436 26.6764 162.222 27.548 161.793 28.3794C161.39 29.2108 160.774 29.9483 159.942 30.592C159.138 31.2088 158.132 31.705 156.925 32.0805C155.745 32.4559 154.377 32.6437 152.822 32.6437C151.025 32.6437 149.496 32.4023 148.236 31.9195C146.975 31.4368 145.956 30.8334 145.178 30.1093C144.4 29.3583 143.837 28.5269 143.489 27.6151C143.14 26.7032 142.966 25.8316 142.966 25.0002H148.155Z" fill="white"/>
<path fill-rule="evenodd" clip-rule="evenodd" d="M12.0686 6.54297C5.40328 6.54297 0 11.9462 0 18.6115V24.6458C0 31.3111 5.40328 36.7144 12.0686 36.7144C18.7339 36.7144 24.1371 31.3111 24.1371 24.6458V18.6115C24.1371 11.9463 18.7339 6.54297 12.0686 6.54297ZM10.4258 29.011L17.4658 21.4682V21.4682C17.5222 21.4078 17.5629 21.3344 17.5841 21.2545C17.6054 21.1746 17.6067 21.0906 17.5878 21.0102C17.5689 20.9297 17.5304 20.8551 17.4758 20.793C17.4212 20.7309 17.3521 20.6832 17.2747 20.6542L13.6523 19.2959L14.5741 14.6866C14.5956 14.5793 14.5815 14.4679 14.534 14.3693C14.4864 14.2708 14.408 14.1904 14.3107 14.1404C14.2133 14.0905 14.1023 14.0736 13.9945 14.0925C13.8867 14.1113 13.788 14.1648 13.7134 14.2448L6.67335 21.7877C6.61693 21.8481 6.57629 21.9215 6.55502 22.0014C6.53374 22.0813 6.5325 22.1652 6.55139 22.2457C6.57029 22.3262 6.60874 22.4008 6.66335 22.4629C6.71795 22.525 6.78702 22.5726 6.86444 22.6017L10.4869 23.9601L9.56503 28.5693C9.54357 28.6766 9.55768 28.788 9.60524 28.8865C9.65279 28.9851 9.73119 29.0654 9.82854 29.1154C9.92589 29.1653 10.0369 29.1822 10.1447 29.1633C10.2525 29.1445 10.3512 29.091 10.4258 29.011Z" fill="white"/>
</svg>
