<svg width="55" height="39" viewBox="0 0 55 39" fill="none" xmlns="http://www.w3.org/2000/svg">
<path d="M53.7007 19.3807C53.7007 24.5688 50.7661 29.3034 45.9459 32.7567C41.1264 36.2095 34.4478 38.3576 27.0522 38.3576C19.6567 38.3576 12.978 36.2095 8.15856 32.7567C3.33836 29.3034 0.403765 24.5688 0.403765 19.3807C0.403765 14.1926 3.33836 9.45798 8.15856 6.0047C12.978 2.55193 19.6567 0.403765 27.0522 0.403765C34.4478 0.403765 41.1264 2.55193 45.9459 6.0047C50.7661 9.45798 53.7007 14.1926 53.7007 19.3807Z" stroke="white" stroke-width="0.807529"/>
<line x1="20.1495" y1="12" x2="34.1392" y2="25.9897" stroke="white" stroke-width="1.21129" stroke-linecap="round"/>
<line x1="20.293" y1="25.9902" x2="34.2827" y2="12.0004" stroke="white" stroke-width="1.21129" stroke-linecap="round"/>
</svg>
