<svg width="1288" height="295" viewBox="0 0 1288 295" fill="none" xmlns="http://www.w3.org/2000/svg">
<path d="M0.809829 82.7429H50.8926V86.027C50.8926 94.2373 49.2505 102.995 45.9664 112.3C42.6823 121.331 39.535 129.815 36.5246 137.752L45.1454 141.446C46.7874 137.615 48.2926 133.51 49.661 129.131C51.3031 124.478 53.082 119.963 54.9977 115.584C56.9135 111.205 59.1029 107.1 61.5659 103.269C64.029 99.1634 66.9026 95.8793 70.1867 93.4162C78.9444 86.5743 88.1125 82.0587 97.6912 79.8692C107.27 77.6798 118.764 76.5851 132.174 76.5851C142.574 76.5851 152.29 78.0904 161.321 81.1008C170.352 84.1112 178.152 88.6269 184.72 94.6478C191.562 100.395 196.899 107.647 200.73 116.405C204.562 125.163 206.477 135.426 206.477 147.194V288H155.984V183.319C155.984 163.614 152.29 149.246 144.9 140.215C137.785 130.91 126.701 126.257 111.649 126.257C103.438 126.257 95.6386 127.352 88.2494 129.541C80.8601 131.731 74.4287 135.289 68.9552 140.215C63.4817 144.867 59.1029 150.751 55.8187 157.867C52.5346 164.983 50.8926 173.467 50.8926 183.319V288H0.809829V82.7429ZM234.088 82.7429H283.76V288H234.088V82.7429ZM231.214 0.639983H285.813V51.9543H231.214V0.639983ZM448.033 82.7429V126.668H394.666V219.034C394.666 227.791 396.719 233.675 400.824 236.686C405.203 239.696 412.181 241.201 421.76 241.201H445.981V288H396.308C386.73 288 378.656 285.947 372.088 281.842C365.52 277.737 360.183 272.4 356.078 265.832C351.973 259.264 348.962 251.875 347.047 243.664C345.404 235.454 344.583 227.244 344.583 219.034V126.668H303.532V82.7429H344.583V5.15566H394.666V82.7429H448.033ZM466.407 288V82.7429H516.49V88.9006C516.49 96.8372 514.711 105.184 511.153 113.942C507.869 122.7 504.721 130.636 501.711 137.752L510.332 141.446C511.974 137.889 513.616 134.057 515.258 129.952C516.9 125.573 518.679 121.468 520.595 117.637C522.51 113.531 524.7 109.7 527.163 106.142C529.626 102.584 532.5 99.5739 535.784 97.1108C541.257 93.0057 546.868 89.5848 552.615 86.848C558.362 84.1112 564.52 82.0587 571.088 80.6903C577.93 79.0482 585.319 77.9535 593.256 77.4062C601.192 76.8588 610.224 76.5851 620.35 76.5851V123.384C607.761 123.384 595.171 124.615 582.582 127.078C570.267 129.541 559.183 133.783 549.331 139.804C539.478 145.552 531.542 153.214 525.521 162.793C519.5 172.372 516.49 184.277 516.49 198.508V288H466.407ZM742.667 294.568C725.152 294.568 709.142 291.968 694.637 286.768C680.132 281.569 667.816 274.179 657.69 264.601C647.564 255.022 639.628 243.528 633.881 230.117C628.407 216.434 625.67 201.381 625.67 184.961C625.67 168.54 628.407 153.625 633.881 140.215C639.628 126.805 647.564 115.447 657.69 106.142C667.816 96.5635 680.132 89.3111 694.637 84.3849C709.142 79.1851 725.152 76.5851 742.667 76.5851C760.456 76.5851 776.466 79.3219 790.697 84.7954C805.202 89.9953 817.517 97.3845 827.643 106.963C838.043 116.542 845.98 128.036 851.453 141.446C857.2 154.583 860.074 169.088 860.074 184.961C860.074 200.834 857.2 215.476 851.453 228.886C845.98 242.296 838.043 253.927 827.643 263.78C817.517 273.358 805.202 280.884 790.697 286.358C776.466 291.831 760.456 294.568 742.667 294.568ZM679.037 184.961C679.037 193.445 680.269 201.518 682.732 209.181C685.195 216.571 688.89 223.139 693.816 228.886C699.016 234.633 705.584 239.149 713.52 242.433C721.731 245.717 731.446 247.359 742.667 247.359C754.161 247.359 763.877 245.717 771.813 242.433C780.024 239.149 786.592 234.633 791.518 228.886C796.718 223.139 800.549 216.571 803.012 209.181C805.476 201.518 806.707 193.445 806.707 184.961C806.707 176.477 805.476 168.54 803.012 161.151C800.549 153.762 796.718 147.33 791.518 141.857C786.592 136.11 780.024 131.594 771.813 128.31C763.877 125.026 754.161 123.384 742.667 123.384C731.172 123.384 721.457 125.026 713.52 128.31C705.584 131.594 699.016 136.11 693.816 141.857C688.616 147.33 684.784 153.762 682.321 161.151C680.132 168.54 679.037 176.477 679.037 184.961ZM919.971 82.7429V191.119C919.971 212.465 924.213 227.654 932.697 236.686C941.454 245.443 952.812 249.822 966.769 249.822C974.158 249.822 981.137 248.727 987.705 246.538C994.547 244.075 1000.43 240.517 1005.36 235.865C1010.28 230.939 1014.12 224.781 1016.85 217.392C1019.86 210.002 1021.37 201.245 1021.37 191.119V82.7429H1071.45V288H1021.37V279.79C1021.64 274.316 1023.15 268.569 1025.88 262.548C1028.62 256.527 1030.95 250.78 1032.86 245.307L1024.24 242.022C1022.33 247.496 1020.41 253.517 1018.49 260.085C1016.58 266.38 1013.57 271.443 1009.46 275.274C1005.36 279.379 1001.12 282.663 996.737 285.126C992.632 287.589 988.116 289.505 983.19 290.874C978.537 292.242 973.337 293.063 967.59 293.337C962.117 293.884 955.822 294.158 948.707 294.158C938.581 294.158 928.728 292.652 919.15 289.642C909.845 286.632 901.497 282.253 894.108 276.506C886.719 270.485 880.698 263.095 876.046 254.338C871.667 245.307 869.477 235.044 869.477 223.549V82.7429H919.971ZM1141.45 216.571C1142 220.676 1143.23 224.781 1145.14 228.886C1147.33 232.717 1150.34 236.275 1154.18 239.559C1158.28 242.57 1163.21 245.17 1168.95 247.359C1174.7 249.275 1181.41 250.233 1189.07 250.233C1205.49 250.233 1217.12 247.77 1223.96 242.843C1230.8 237.644 1234.23 232.033 1234.23 226.012C1234.23 219.444 1230.67 214.381 1223.55 210.823C1216.71 207.266 1207.95 204.118 1197.28 201.381C1186.88 198.645 1175.52 196.045 1163.21 193.582C1151.16 190.845 1139.81 187.287 1129.13 182.908C1118.73 178.256 1109.98 172.235 1102.86 164.846C1096.02 157.456 1092.6 147.741 1092.6 135.699C1092.6 128.036 1094.38 120.647 1097.93 113.531C1101.77 106.416 1107.51 100.121 1115.18 94.6478C1123.11 89.1742 1132.97 84.7954 1144.73 81.5113C1156.5 78.2272 1170.32 76.5851 1186.2 76.5851C1203.44 76.5851 1218.08 78.6377 1230.12 82.7429C1242.16 86.848 1252.01 92.1847 1259.68 98.7529C1267.34 105.047 1272.95 112.163 1276.51 120.1C1280.07 128.036 1281.85 135.836 1281.85 143.499H1231.35C1231.35 136.657 1227.38 131.184 1219.45 127.078C1211.51 122.7 1200.84 120.51 1187.43 120.51C1175.11 120.51 1165.12 122.015 1157.46 125.026C1149.8 127.763 1145.97 131.868 1145.97 137.341C1145.97 141.994 1149.39 145.552 1156.23 148.015C1163.34 150.478 1172.1 152.804 1182.5 154.993C1192.9 156.909 1204.26 159.235 1216.57 161.972C1228.89 164.709 1240.25 168.54 1250.65 173.467C1261.05 178.119 1269.67 184.55 1276.51 192.761C1283.62 200.971 1287.18 211.508 1287.18 224.37C1287.18 233.675 1284.99 242.57 1280.61 251.054C1276.51 259.538 1270.21 267.064 1261.73 273.632C1253.52 279.927 1243.26 284.99 1230.94 288.821C1218.9 292.652 1204.94 294.568 1189.07 294.568C1170.73 294.568 1155.13 292.105 1142.27 287.179C1129.41 282.253 1119.01 276.095 1111.07 268.706C1103.13 261.043 1097.39 252.559 1093.83 243.254C1090.27 233.949 1088.49 225.054 1088.49 216.571H1141.45Z" fill="white"/>
</svg>
