<svg width="169" height="120" viewBox="0 0 169 120" fill="none" xmlns="http://www.w3.org/2000/svg">
<path d="M45 35C45 32.3478 46.0536 29.8043 47.9289 27.9289C49.8043 26.0536 52.3478 25 55 25H115C117.652 25 120.196 26.0536 122.071 27.9289C123.946 29.8043 125 32.3478 125 35V80H45V35ZM35 95H135H35Z" fill="#DFD8FB"/>
<path d="M35 95H135M45 35C45 32.3478 46.0536 29.8043 47.9289 27.9289C49.8043 26.0536 52.3478 25 55 25H115C117.652 25 120.196 26.0536 122.071 27.9289C123.946 29.8043 125 32.3478 125 35V80H45V35Z" stroke="black" stroke-width="8" stroke-linecap="round" stroke-linejoin="round"/>
<path d="M86.125 43.125L82 51.75H88.375L83.875 60.375" stroke="black" stroke-width="8" stroke-linecap="round" stroke-linejoin="round"/>
<path d="M140.317 17.3191C140.94 17.3965 152.366 18.5887 153.254 2.06948C155.021 19.3141 160.238 19.3882 163.505 20.3292C163.505 20.3292 151.868 29.1658 151.872 36.1581C151.873 36.2284 151.873 36.2651 151.873 36.2651C151.872 36.2295 151.872 36.1939 151.872 36.1581C151.851 34.6988 151.365 18.7787 140.317 17.3191C140.299 17.3169 140.29 17.3156 140.29 17.3156C140.299 17.3167 140.308 17.3179 140.317 17.3191Z" fill="#F2B622"/>
</svg>
